<?xml version="1.0" encoding="UTF-8" standalone="no"?> <!-- Created with Vectornator for iOS (http://vectornator.io/) --><!DOCTYPE svg PUBLIC "-//W3C//DTD SVG 1.1//EN" "http://www.w3.org/Graphics/SVG/1.1/DTD/svg11.dtd">
<svg height="100%" style="fill-rule:nonzero;clip-rule:evenodd;stroke-linecap:round;stroke-linejoin:round;" xmlns:xlink="http://www.w3.org/1999/xlink" xmlns="http://www.w3.org/2000/svg" xml:space="preserve" width="100%" xmlns:vectornator="http://vectornator.io" version="1.1" viewBox="0 0 250 325">
<metadata>
<vectornator:setting key="DimensionsVisible" value="0"/>
<vectornator:setting key="PencilOnly" value="0"/>
<vectornator:setting key="SnapToPoints" value="0"/>
<vectornator:setting key="OutlineMode" value="0"/>
<vectornator:setting key="CMYKEnabledKey" value="0"/>
<vectornator:setting key="RulersVisible" value="1"/>
<vectornator:setting key="SnapToEdges" value="0"/>
<vectornator:setting key="GuidesVisible" value="0"/>
<vectornator:setting key="DisplayWhiteBackground" value="0"/>
<vectornator:setting key="doHistoryDisabled" value="0"/>
<vectornator:setting key="SnapToGuides" value="1"/>
<vectornator:setting key="TimeLapseWatermarkDisabled" value="0"/>
<vectornator:setting key="Units" value="Points"/>
<vectornator:setting key="DynamicGuides" value="1"/>
<vectornator:setting key="IsolateActiveLayer" value="0"/>
<vectornator:setting key="SnapToGrid" value="0"/>
</metadata>
<defs/>
<g id="Layer 1" vectornator:layerName="Layer 1">
<path d="M22.6681+0L225.168+0C238.975+0+250.168+11.1929+250.168+25L250.168+300C250.168+313.807+238.975+325+225.168+325L22.6681+325C10.2417+325+0.1681+314.926+0.1681+302.5L0.1681+22.5C0.1681+10.0736+10.2417+0+22.6681+0Z" opacity="1" fill="#ffffff"/>
<path d="M206.505+80.0344C206.504+76.9567+205.846+74.2373+204.516+71.9038C203.21+69.6083+201.254+67.6853+198.63+66.1638C176.972+53.6634+155.292+41.2011+133.641+28.6879C127.804+25.3153+122.144+25.438+116.35+28.8595C107.729+33.9487+64.5681+58.7004+51.7067+66.1569C46.4104+69.2264+43.8327+73.9234+43.8315+80.0287C43.8232+105.168+43.8315+130.306+43.8232+155.446C43.8245+158.456+44.4543+161.123+45.7253+163.422C47.0319+165.786+49.0153+167.762+51.6997+169.318C64.5617+176.775+107.729+201.524+116.347+206.615C122.144+210.038+127.804+210.16+133.643+206.786C155.294+194.273+176.975+181.811+198.637+169.311C201.322+167.755+203.305+165.778+204.612+163.416C205.881+161.116+206.512+158.45+206.513+155.439C206.513+155.439+206.513+105.174+206.505+80.0344" fill-rule="evenodd" fill="#a9b9cb" opacity="1"/>
<path d="M133.494+28.8519C127.666+25.4875+122.016+25.6102+116.232+29.0229C107.625+34.0987+64.5344+58.7862+51.694+66.2236C46.4059+69.2848+43.8327+73.9698+43.8315+80.0592C43.8232+105.133+43.8315+130.207+43.8232+155.281C43.8245+158.283+44.453+160.943+45.7221+163.236C47.0268+165.594+49.0071+167.565+51.687+169.117C55.9539+171.583+60.2243+174.045+64.4976+176.501L183.397+57.6029C166.76+48.0233+150.12+38.4513+133.494+28.8519" fill-rule="evenodd" fill="#7f8b99" opacity="1"/>
<path d="M141.981+106.278L167.299+106.457C167.299+95.9082+156.621+70.0748+126.008+70.0748C106.504+70.0748+80.2829+82.4748+80.2829+118.126C80.2829+153.776+105.987+165.401+126.008+165.401C158.43+165.401+166.179+142.966+166.179+130.288L142.025+128.907C142.025+128.907+142.671+143.571+125.879+143.571C110.379+143.571+107.793+124.584+107.793+118.126C107.793+108.309+111.284+92.5501+125.879+92.5501C140.476+92.5501+141.981+106.278+141.981+106.278" fill-rule="evenodd" fill="#ffffff" opacity="1"/>
<g opacity="1">
<path d="M130.862+267.082L133.332+267.082C133.193+266.094+132.899+265.223+132.448+264.469C131.997+263.715+131.434+263.087+130.758+262.584C130.082+262.082+129.311+261.7+128.444+261.44C127.577+261.18+126.659+261.05+125.688+261.05C124.267+261.05+123.006+261.306+121.905+261.817C120.804+262.329+119.886+263.026+119.149+263.91C118.412+264.794+117.853+265.83+117.472+267.017C117.091+268.205+116.9+269.474+116.9+270.826C116.9+272.178+117.078+273.444+117.433+274.622C117.788+275.801+118.321+276.824+119.032+277.69C119.743+278.557+120.635+279.237+121.71+279.731C122.785+280.225+124.041+280.472+125.48+280.472C127.855+280.472+129.727+279.822+131.096+278.522C132.465+277.222+133.271+275.402+133.514+273.062L131.044+273.062C130.992+273.825+130.836+274.536+130.576+275.194C130.316+275.853+129.956+276.421+129.497+276.897C129.038+277.374+128.492+277.747+127.859+278.015C127.226+278.284+126.503+278.418+125.688+278.418C124.579+278.418+123.625+278.21+122.828+277.794C122.031+277.378+121.376+276.819+120.865+276.117C120.354+275.415+119.977+274.592+119.734+273.647C119.491+272.703+119.37+271.702+119.37+270.644C119.37+269.674+119.491+268.738+119.734+267.836C119.977+266.935+120.354+266.133+120.865+265.431C121.376+264.729+122.026+264.17+122.815+263.754C123.604+263.338+124.553+263.13+125.662+263.13C126.962+263.13+128.084+263.46+129.029+264.118C129.974+264.777+130.585+265.765+130.862+267.082Z" opacity="1" fill="#887bec"/>
</g>
</g>
</svg>
