<?xml version="1.0" encoding="UTF-8" standalone="no"?> <!-- Created with Vectornator for iOS (http://vectornator.io/) --><!DOCTYPE svg PUBLIC "-//W3C//DTD SVG 1.1//EN" "http://www.w3.org/Graphics/SVG/1.1/DTD/svg11.dtd">
<svg height="100%" style="fill-rule:nonzero;clip-rule:evenodd;stroke-linecap:round;stroke-linejoin:round;" xmlns:xlink="http://www.w3.org/1999/xlink" xmlns="http://www.w3.org/2000/svg" xml:space="preserve" width="100%" xmlns:vectornator="http://vectornator.io" version="1.1" viewBox="0 0 250 325">
<metadata>
<vectornator:setting key="DimensionsVisible" value="0"/>
<vectornator:setting key="PencilOnly" value="0"/>
<vectornator:setting key="SnapToPoints" value="0"/>
<vectornator:setting key="OutlineMode" value="0"/>
<vectornator:setting key="CMYKEnabledKey" value="0"/>
<vectornator:setting key="RulersVisible" value="1"/>
<vectornator:setting key="SnapToEdges" value="0"/>
<vectornator:setting key="GuidesVisible" value="0"/>
<vectornator:setting key="DisplayWhiteBackground" value="0"/>
<vectornator:setting key="doHistoryDisabled" value="0"/>
<vectornator:setting key="SnapToGuides" value="1"/>
<vectornator:setting key="TimeLapseWatermarkDisabled" value="0"/>
<vectornator:setting key="Units" value="Points"/>
<vectornator:setting key="DynamicGuides" value="1"/>
<vectornator:setting key="IsolateActiveLayer" value="0"/>
<vectornator:setting key="SnapToGrid" value="0"/>
</metadata>
<defs/>
<g id="Layer 1" vectornator:layerName="Layer 1">
<path d="M22.5+0L225+0C238.807+0+250+11.1929+250+25L250+300C250+313.807+238.807+325+225+325L22.5+325C10.0736+325+0+314.926+0+302.5L0+22.5C0+10.0736+10.0736+0+22.5+0Z" fill-rule="evenodd" fill="#ffffff" opacity="1"/>
<path d="M202.26+40.28L47.73+40.28L61.365+186.686L124.995+203.91L188.625+186.686L202.26+40.28L202.26+40.28Z" opacity="1" fill="#0277bd"/>
<path d="M124.995+53.1982L124.995+190.561L175.899+176.782L187.262+53.1982L124.995+53.1982Z" opacity="1" fill="#039be5"/>
<path d="M166.354+74.7284L124.995+74.7284L124.995+91.9526L147.265+91.9526L145.902+109.177L124.995+109.177L124.995+126.401L144.993+126.401L143.63+145.778L124.995+151.807L124.995+169.892L160.901+158.696L164.082+109.177L164.082+109.177L166.354+74.7284Z" opacity="1" fill="#ffffff"/>
<path d="M124.995+74.7284L124.995+91.9526L84.5445+91.9526L83.181+74.7284L124.995+74.7284ZM104.088+109.177L104.997+126.401L124.995+126.401L124.995+109.177L104.088+109.177ZM105.906+135.013L87.726+135.013L89.0895+158.696L124.995+169.892L124.995+151.807L106.36+145.778L105.906+135.013Z" opacity="1" fill="#eeeeee"/>
<g opacity="1">
<path d="M113.841+268.796L116.311+268.796C116.172+267.808+115.878+266.937+115.427+266.183C114.976+265.429+114.413+264.801+113.737+264.298C113.061+263.795+112.29+263.414+111.423+263.154C110.556+262.894+109.638+262.764+108.667+262.764C107.246+262.764+105.985+263.02+104.884+263.531C103.783+264.042+102.865+264.74+102.128+265.624C101.391+266.508+100.832+267.544+100.451+268.731C100.07+269.918+99.879+271.188+99.879+272.54C99.879+273.892+100.057+275.157+100.412+276.336C100.767+277.515+101.3+278.537+102.011+279.404C102.722+280.271+103.614+280.951+104.689+281.445C105.764+281.939+107.02+282.186+108.459+282.186C110.834+282.186+112.706+281.536+114.075+280.236C115.444+278.936+116.25+277.116+116.493+274.776L114.023+274.776C113.971+275.539+113.815+276.249+113.555+276.908C113.295+277.567+112.935+278.134+112.476+278.611C112.017+279.088+111.471+279.46+110.838+279.729C110.205+279.998+109.482+280.132+108.667+280.132C107.558+280.132+106.604+279.924+105.807+279.508C105.01+279.092+104.355+278.533+103.844+277.831C103.333+277.129+102.956+276.306+102.713+275.361C102.47+274.416+102.349+273.415+102.349+272.358C102.349+271.387+102.47+270.451+102.713+269.55C102.956+268.649+103.333+267.847+103.844+267.145C104.355+266.443+105.005+265.884+105.794+265.468C106.583+265.052+107.532+264.844+108.641+264.844C109.941+264.844+111.063+265.173+112.008+265.832C112.953+266.491+113.564+267.479+113.841+268.796Z" opacity="1" fill="#887bec"/>
<path d="M130.299+268.64L132.639+268.64C132.604+267.617+132.409+266.738+132.054+266.001C131.699+265.264+131.213+264.653+130.598+264.168C129.983+263.683+129.268+263.327+128.453+263.102C127.638+262.877+126.754+262.764+125.801+262.764C124.952+262.764+124.124+262.872+123.318+263.089C122.512+263.306+121.793+263.635+121.16+264.077C120.527+264.519+120.02+265.082+119.639+265.767C119.258+266.452+119.067+267.262+119.067+268.198C119.067+269.047+119.236+269.754+119.574+270.317C119.912+270.88+120.363+271.34+120.926+271.695C121.489+272.05+122.126+272.336+122.837+272.553C123.548+272.77+124.271+272.96+125.008+273.125C125.745+273.29+126.468+273.45+127.179+273.606C127.89+273.762+128.527+273.966+129.09+274.217C129.653+274.468+130.104+274.793+130.442+275.192C130.78+275.591+130.949+276.111+130.949+276.752C130.949+277.428+130.81+277.983+130.533+278.416C130.256+278.849+129.892+279.192+129.441+279.443C128.99+279.694+128.483+279.872+127.92+279.976C127.357+280.08+126.798+280.132+126.243+280.132C125.55+280.132+124.874+280.045+124.215+279.872C123.556+279.699+122.98+279.43+122.486+279.066C121.992+278.702+121.593+278.238+121.29+277.675C120.987+277.112+120.835+276.44+120.835+275.66L118.495+275.66C118.495+276.787+118.699+277.762+119.106+278.585C119.513+279.408+120.068+280.084+120.77+280.613C121.472+281.142+122.287+281.536+123.214+281.796C124.141+282.056+125.125+282.186+126.165+282.186C127.014+282.186+127.868+282.086+128.726+281.887C129.584+281.688+130.36+281.367+131.053+280.925C131.746+280.483+132.314+279.911+132.756+279.209C133.198+278.507+133.419+277.662+133.419+276.674C133.419+275.755+133.25+274.993+132.912+274.386C132.574+273.779+132.123+273.277+131.56+272.878C130.997+272.479+130.36+272.163+129.649+271.929C128.938+271.695+128.215+271.491+127.478+271.318C126.741+271.145+126.018+270.984+125.307+270.837C124.596+270.69+123.959+270.503+123.396+270.278C122.833+270.053+122.382+269.762+122.044+269.407C121.706+269.052+121.537+268.588+121.537+268.016C121.537+267.409+121.654+266.902+121.888+266.495C122.122+266.088+122.434+265.763+122.824+265.52C123.214+265.277+123.66+265.104+124.163+265C124.666+264.896+125.177+264.844+125.697+264.844C126.98+264.844+128.033+265.143+128.856+265.741C129.679+266.339+130.16+267.305+130.299+268.64Z" opacity="1" fill="#887bec"/>
<path d="M147.147+268.64L149.487+268.64C149.452+267.617+149.257+266.738+148.902+266.001C148.547+265.264+148.061+264.653+147.446+264.168C146.831+263.683+146.116+263.327+145.301+263.102C144.486+262.877+143.602+262.764+142.649+262.764C141.8+262.764+140.972+262.872+140.166+263.089C139.36+263.306+138.641+263.635+138.008+264.077C137.375+264.519+136.868+265.082+136.487+265.767C136.106+266.452+135.915+267.262+135.915+268.198C135.915+269.047+136.084+269.754+136.422+270.317C136.76+270.88+137.211+271.34+137.774+271.695C138.337+272.05+138.974+272.336+139.685+272.553C140.396+272.77+141.119+272.96+141.856+273.125C142.593+273.29+143.316+273.45+144.027+273.606C144.738+273.762+145.375+273.966+145.938+274.217C146.501+274.468+146.952+274.793+147.29+275.192C147.628+275.591+147.797+276.111+147.797+276.752C147.797+277.428+147.658+277.983+147.381+278.416C147.104+278.849+146.74+279.192+146.289+279.443C145.838+279.694+145.331+279.872+144.768+279.976C144.205+280.08+143.646+280.132+143.091+280.132C142.398+280.132+141.722+280.045+141.063+279.872C140.404+279.699+139.828+279.43+139.334+279.066C138.84+278.702+138.441+278.238+138.138+277.675C137.835+277.112+137.683+276.44+137.683+275.66L135.343+275.66C135.343+276.787+135.547+277.762+135.954+278.585C136.361+279.408+136.916+280.084+137.618+280.613C138.32+281.142+139.135+281.536+140.062+281.796C140.989+282.056+141.973+282.186+143.013+282.186C143.862+282.186+144.716+282.086+145.574+281.887C146.432+281.688+147.208+281.367+147.901+280.925C148.594+280.483+149.162+279.911+149.604+279.209C150.046+278.507+150.267+277.662+150.267+276.674C150.267+275.755+150.098+274.993+149.76+274.386C149.422+273.779+148.971+273.277+148.408+272.878C147.845+272.479+147.208+272.163+146.497+271.929C145.786+271.695+145.063+271.491+144.326+271.318C143.589+271.145+142.866+270.984+142.155+270.837C141.444+270.69+140.807+270.503+140.244+270.278C139.681+270.053+139.23+269.762+138.892+269.407C138.554+269.052+138.385+268.588+138.385+268.016C138.385+267.409+138.502+266.902+138.736+266.495C138.97+266.088+139.282+265.763+139.672+265.52C140.062+265.277+140.508+265.104+141.011+265C141.514+264.896+142.025+264.844+142.545+264.844C143.828+264.844+144.881+265.143+145.704+265.741C146.527+266.339+147.008+267.305+147.147+268.64Z" opacity="1" fill="#887bec"/>
</g>
</g>
</svg>
