<?xml version="1.0" encoding="UTF-8" standalone="no"?> <!-- Created with Vectornator for iOS (http://vectornator.io/) --><!DOCTYPE svg PUBLIC "-//W3C//DTD SVG 1.1//EN" "http://www.w3.org/Graphics/SVG/1.1/DTD/svg11.dtd">
<svg height="100%" style="fill-rule:nonzero;clip-rule:evenodd;stroke-linecap:round;stroke-linejoin:round;" xmlns:xlink="http://www.w3.org/1999/xlink" xmlns="http://www.w3.org/2000/svg" xml:space="preserve" width="100%" xmlns:vectornator="http://vectornator.io" version="1.1" viewBox="0 0 250 325">
<metadata>
<vectornator:setting key="DimensionsVisible" value="0"/>
<vectornator:setting key="PencilOnly" value="0"/>
<vectornator:setting key="SnapToPoints" value="0"/>
<vectornator:setting key="OutlineMode" value="0"/>
<vectornator:setting key="CMYKEnabledKey" value="0"/>
<vectornator:setting key="RulersVisible" value="1"/>
<vectornator:setting key="SnapToEdges" value="0"/>
<vectornator:setting key="GuidesVisible" value="0"/>
<vectornator:setting key="DisplayWhiteBackground" value="0"/>
<vectornator:setting key="doHistoryDisabled" value="0"/>
<vectornator:setting key="SnapToGuides" value="1"/>
<vectornator:setting key="TimeLapseWatermarkDisabled" value="0"/>
<vectornator:setting key="Units" value="Points"/>
<vectornator:setting key="DynamicGuides" value="1"/>
<vectornator:setting key="IsolateActiveLayer" value="0"/>
<vectornator:setting key="SnapToGrid" value="0"/>
</metadata>
<defs/>
<g id="Layer 1" vectornator:layerName="Layer 1">
<path d="M22.5+0L225+0C238.807+0+250+11.1929+250+25L250+300C250+313.807+238.807+325+225+325L22.5+325C10.0736+325+0+314.926+0+302.5L0+22.5C0+10.0736+10.0736+0+22.5+0Z" opacity="1" fill="#ffffff"/>
<path d="M91.0572+69.9401L80.3884+59.2712L80.4335+136.389L80.5612+139.994C80.6141+141.69+80.9287+143.603+81.4536+145.587L165.989+175.396L187.121+166.033L187.129+166.008L91.0572+69.9401" fill-rule="evenodd" fill="#00d2b8" opacity="1"/>
<path d="M81.4536+145.587L81.4587+145.592C81.4536+145.557+81.4355+145.518+81.4355+145.482C81.4355+145.518+81.4407+145.552+81.4536+145.587ZM187.121+166.033L165.989+175.396L81.4587+145.592C83.0733+151.787+86.6481+158.751+90.495+162.559L118.082+189.989L179.422+190.069L187.129+166.008L187.121+166.033Z" fill-rule="evenodd" fill="#55ddca" opacity="1"/>
<path d="M47.5332+108.899C44.8018+111.815+46.1585+117.829+50.556+122.26L69.5248+141.387L81.4536+145.587C80.9287+143.603+80.6141+141.69+80.5612+139.994L80.4335+136.389L80.3884+59.2712L47.5332+108.899Z" fill-rule="evenodd" fill="#0081c6" opacity="1"/>
<path d="M166.683+60.2616C164.7+59.7548+162.798+59.4414+161.074+59.3873L157.264+59.2557L80.3884+59.2661L187.139+166.008L187.148+166.008L196.523+144.856L166.683+60.2616" fill-rule="evenodd" fill="#0079b3" opacity="1"/>
<path d="M166.587+60.241C166.628+60.25+166.66+60.2616+166.687+60.2655L166.683+60.2616C166.66+60.25+166.628+60.25+166.587+60.241ZM183.64+69.3185C179.766+65.4123+172.894+61.862+166.687+60.2655L196.523+144.856L187.148+166.008L187.139+166.008L210.05+158.69L210.099+95.8765L183.64+69.3185Z" fill-rule="evenodd" fill="#00a4e4" opacity="1"/>
<path d="M162.504+48.405L143.383+29.4247C138.961+25.0439+132.943+23.6808+130.035+26.4045L80.3884+59.2661L157.264+59.2557L161.074+59.3873C162.798+59.4414+164.7+59.7548+166.683+60.2616L162.504+48.405Z" fill-rule="evenodd" fill="#00d2b8" opacity="1"/>
<g opacity="1">
<path d="M104.938+279.08L104.938+264.676L109.098+264.676C110.242+264.676+111.204+264.836+111.984+265.157C112.764+265.478+113.401+265.946+113.895+266.561C114.389+267.176+114.744+267.922+114.961+268.797C115.178+269.672+115.286+270.665+115.286+271.774C115.286+272.918+115.169+273.893+114.935+274.699C114.701+275.505+114.402+276.177+114.038+276.714C113.674+277.251+113.262+277.676+112.803+277.988C112.344+278.3+111.88+278.538+111.412+278.703C110.944+278.868+110.502+278.972+110.086+279.015C109.67+279.058+109.323+279.08+109.046+279.08L104.938+279.08ZM102.468+262.596L102.468+281.16L108.838+281.16C110.381+281.16+111.715+280.943+112.842+280.51C113.969+280.077+114.896+279.448+115.624+278.625C116.352+277.802+116.889+276.788+117.236+275.583C117.583+274.378+117.756+272.996+117.756+271.436C117.756+268.455+116.985+266.236+115.442+264.78C113.899+263.324+111.698+262.596+108.838+262.596L102.468+262.596Z" opacity="1" fill="#887bec"/>
<path d="M132.316+281.108C131.935+281.333+131.406+281.446+130.73+281.446C130.158+281.446+129.703+281.286+129.365+280.965C129.027+280.644+128.858+280.12+128.858+279.392C128.251+280.12+127.545+280.644+126.739+280.965C125.933+281.286+125.062+281.446+124.126+281.446C123.519+281.446+122.943+281.377+122.397+281.238C121.851+281.099+121.379+280.883+120.98+280.588C120.581+280.293+120.265+279.908+120.031+279.431C119.797+278.954+119.68+278.378+119.68+277.702C119.68+276.939+119.81+276.315+120.07+275.83C120.33+275.345+120.672+274.95+121.097+274.647C121.522+274.344+122.007+274.114+122.553+273.958C123.099+273.802+123.658+273.672+124.23+273.568C124.837+273.447+125.413+273.356+125.959+273.295C126.505+273.234+126.986+273.148+127.402+273.035C127.818+272.922+128.147+272.758+128.39+272.541C128.633+272.324+128.754+272.008+128.754+271.592C128.754+271.107+128.663+270.717+128.481+270.422C128.299+270.127+128.065+269.902+127.779+269.746C127.493+269.59+127.172+269.486+126.817+269.434C126.462+269.382+126.111+269.356+125.764+269.356C124.828+269.356+124.048+269.534+123.424+269.889C122.8+270.244+122.462+270.916+122.41+271.904L120.2+271.904C120.235+271.072+120.408+270.37+120.72+269.798C121.032+269.226+121.448+268.762+121.968+268.407C122.488+268.052+123.082+267.796+123.749+267.64C124.416+267.484+125.131+267.406+125.894+267.406C126.501+267.406+127.103+267.449+127.701+267.536C128.299+267.623+128.841+267.8+129.326+268.069C129.811+268.338+130.201+268.715+130.496+269.2C130.791+269.685+130.938+270.318+130.938+271.098L130.938+278.014C130.938+278.534+130.968+278.915+131.029+279.158C131.09+279.401+131.293+279.522+131.64+279.522C131.831+279.522+132.056+279.479+132.316+279.392L132.316+281.108ZM128.728+274.218C128.451+274.426+128.087+274.578+127.636+274.673C127.185+274.768+126.713+274.846+126.219+274.907C125.725+274.968+125.227+275.037+124.724+275.115C124.221+275.193+123.771+275.319+123.372+275.492C122.973+275.665+122.648+275.912+122.397+276.233C122.146+276.554+122.02+276.991+122.02+277.546C122.02+277.91+122.094+278.218+122.241+278.469C122.388+278.72+122.579+278.924+122.813+279.08C123.047+279.236+123.32+279.349+123.632+279.418C123.944+279.487+124.273+279.522+124.62+279.522C125.348+279.522+125.972+279.422+126.492+279.223C127.012+279.024+127.437+278.772+127.766+278.469C128.095+278.166+128.338+277.836+128.494+277.481C128.65+277.126+128.728+276.792+128.728+276.48L128.728+274.218Z" opacity="1" fill="#887bec"/>
<path d="M134.292+267.718L134.292+281.16L136.502+281.16L136.502+275.18C136.502+274.313+136.589+273.546+136.762+272.879C136.935+272.212+137.213+271.644+137.594+271.176C137.975+270.708+138.478+270.353+139.102+270.11C139.726+269.867+140.48+269.746+141.364+269.746L141.364+267.406C140.168+267.371+139.18+267.614+138.4+268.134C137.62+268.654+136.961+269.46+136.424+270.552L136.372+270.552L136.372+267.718L134.292+267.718Z" opacity="1" fill="#887bec"/>
<path d="M146.096+267.718L146.096+263.688L143.886+263.688L143.886+267.718L141.598+267.718L141.598+269.668L143.886+269.668L143.886+278.222C143.886+278.846+143.947+279.349+144.068+279.73C144.189+280.111+144.376+280.406+144.627+280.614C144.878+280.822+145.208+280.965+145.615+281.043C146.022+281.121+146.512+281.16+147.084+281.16L148.774+281.16L148.774+279.21L147.76+279.21C147.413+279.21+147.132+279.197+146.915+279.171C146.698+279.145+146.529+279.089+146.408+279.002C146.287+278.915+146.204+278.794+146.161+278.638C146.118+278.482+146.096+278.274+146.096+278.014L146.096+269.668L148.774+269.668L148.774+267.718L146.096+267.718Z" opacity="1" fill="#887bec"/>
</g>
</g>
</svg>
