<?xml version="1.0" encoding="UTF-8" standalone="no"?> <!-- Created with Vectornator for iOS (http://vectornator.io/) --><!DOCTYPE svg PUBLIC "-//W3C//DTD SVG 1.1//EN" "http://www.w3.org/Graphics/SVG/1.1/DTD/svg11.dtd">
<svg height="100%" style="fill-rule:nonzero;clip-rule:evenodd;stroke-linecap:round;stroke-linejoin:round;" xmlns:xlink="http://www.w3.org/1999/xlink" xmlns="http://www.w3.org/2000/svg" xml:space="preserve" width="100%" xmlns:vectornator="http://vectornator.io" version="1.1" viewBox="0 0 250 325">
<metadata>
<vectornator:setting key="DimensionsVisible" value="0"/>
<vectornator:setting key="PencilOnly" value="0"/>
<vectornator:setting key="SnapToPoints" value="0"/>
<vectornator:setting key="OutlineMode" value="0"/>
<vectornator:setting key="CMYKEnabledKey" value="0"/>
<vectornator:setting key="RulersVisible" value="1"/>
<vectornator:setting key="SnapToEdges" value="0"/>
<vectornator:setting key="GuidesVisible" value="0"/>
<vectornator:setting key="DisplayWhiteBackground" value="0"/>
<vectornator:setting key="doHistoryDisabled" value="0"/>
<vectornator:setting key="SnapToGuides" value="1"/>
<vectornator:setting key="TimeLapseWatermarkDisabled" value="0"/>
<vectornator:setting key="Units" value="Points"/>
<vectornator:setting key="DynamicGuides" value="1"/>
<vectornator:setting key="IsolateActiveLayer" value="0"/>
<vectornator:setting key="SnapToGrid" value="0"/>
</metadata>
<defs/>
<g id="Layer 1" vectornator:layerName="Layer 1">
<path d="M22.5+0L225+0C238.807+0+250+11.1929+250+25L250+300C250+313.807+238.807+325+225+325L22.5+325C10.0736+325+1.42109e-14+314.926+1.42109e-14+302.5L1.42109e-14+22.5C1.42109e-14+10.0736+10.0736+0+22.5+0Z" opacity="1" fill="#ffffff"/>
<path d="M145.225+76.0245L129.906+90.2879L115.686+61.5933L123.032+45.0944C124.889+41.8033+127.925+41.7599+129.782+45.0944L145.225+76.0245Z" fill-rule="evenodd" fill="#ffa000" opacity="1"/>
<path d="M129.912+90.2817L72.61+143.579L115.692+61.5933L129.912+90.2817Z" fill-rule="evenodd" fill="#f57f17" opacity="1"/>
<path d="M162.022+54.2101C164.767+51.5959+167.592+52.4776+168.306+56.191L183.203+142.858L133.793+172.522C132.061+173.49+127.466+173.869+127.466+173.869C127.466+173.869+123.287+173.36+121.685+172.478L72.61+143.579L162.022+54.2101Z" fill-rule="evenodd" fill="#ffca28" opacity="1"/>
<path d="M115.692+61.5933L72.61+143.579L91.8101+23.7458C92.5304+20.0324+94.6355+19.6537+96.5356+22.9447L115.692+61.5933Z" fill-rule="evenodd" fill="#ffa000" opacity="1"/>
<g opacity="1">
<path d="M83.9455+262.596L83.9455+281.16L86.4155+281.16L86.4155+272.658L94.9435+272.658L94.9435+270.578L86.4155+270.578L86.4155+264.676L96.1395+264.676L96.1395+262.596L83.9455+262.596Z" opacity="1" fill="#887bec"/>
<path d="M100.846+265.3L100.846+262.596L98.6355+262.596L98.6355+265.3L100.846+265.3ZM98.6355+267.718L98.6355+281.16L100.846+281.16L100.846+267.718L98.6355+267.718Z" opacity="1" fill="#887bec"/>
<path d="M104.2+267.718L104.2+281.16L106.41+281.16L106.41+275.18C106.41+274.313+106.496+273.546+106.67+272.879C106.843+272.212+107.12+271.644+107.502+271.176C107.883+270.708+108.386+270.353+109.01+270.11C109.634+269.867+110.388+269.746+111.272+269.746L111.272+267.406C110.076+267.371+109.088+267.614+108.308+268.134C107.528+268.654+106.869+269.46+106.332+270.552L106.28+270.552L106.28+267.718L104.2+267.718Z" opacity="1" fill="#887bec"/>
<path d="M122.27+273.152L114.548+273.152C114.582+272.632+114.695+272.142+114.886+271.683C115.076+271.224+115.336+270.821+115.666+270.474C115.995+270.127+116.389+269.854+116.849+269.655C117.308+269.456+117.824+269.356+118.396+269.356C118.95+269.356+119.457+269.456+119.917+269.655C120.376+269.854+120.775+270.123+121.113+270.461C121.451+270.799+121.719+271.202+121.919+271.67C122.118+272.138+122.235+272.632+122.27+273.152ZM124.402+276.896L122.218+276.896C122.027+277.78+121.633+278.439+121.035+278.872C120.437+279.305+119.67+279.522+118.734+279.522C118.006+279.522+117.373+279.401+116.836+279.158C116.298+278.915+115.856+278.59+115.51+278.183C115.163+277.776+114.912+277.308+114.756+276.779C114.6+276.25+114.53+275.691+114.548+275.102L124.61+275.102C124.644+274.287+124.571+273.429+124.389+272.528C124.207+271.627+123.877+270.795+123.401+270.032C122.924+269.269+122.291+268.641+121.503+268.147C120.714+267.653+119.722+267.406+118.526+267.406C117.607+267.406+116.762+267.579+115.991+267.926C115.219+268.273+114.552+268.758+113.989+269.382C113.425+270.006+112.988+270.743+112.676+271.592C112.364+272.441+112.208+273.377+112.208+274.4C112.242+275.423+112.394+276.367+112.663+277.234C112.931+278.101+113.334+278.846+113.872+279.47C114.409+280.094+115.072+280.579+115.861+280.926C116.649+281.273+117.581+281.446+118.656+281.446C120.181+281.446+121.446+281.065+122.452+280.302C123.457+279.539+124.107+278.404+124.402+276.896Z" opacity="1" fill="#887bec"/>
<path d="M126.976+262.596L126.976+281.16L129.186+281.16L129.186+279.366L129.238+279.366C129.48+279.765+129.779+280.098+130.135+280.367C130.49+280.636+130.867+280.848+131.266+281.004C131.664+281.16+132.067+281.273+132.475+281.342C132.882+281.411+133.25+281.446+133.58+281.446C134.602+281.446+135.499+281.264+136.271+280.9C137.042+280.536+137.683+280.038+138.195+279.405C138.706+278.772+139.087+278.031+139.339+277.182C139.59+276.333+139.716+275.431+139.716+274.478C139.716+273.525+139.586+272.623+139.326+271.774C139.066+270.925+138.68+270.175+138.169+269.525C137.657+268.875+137.016+268.359+136.245+267.978C135.473+267.597+134.568+267.406+133.528+267.406C132.592+267.406+131.734+267.575+130.954+267.913C130.174+268.251+129.602+268.793+129.238+269.538L129.186+269.538L129.186+262.596L126.976+262.596ZM137.376+274.322C137.376+274.981+137.306+275.622+137.168+276.246C137.029+276.87+136.804+277.425+136.492+277.91C136.18+278.395+135.768+278.785+135.257+279.08C134.745+279.375+134.108+279.522+133.346+279.522C132.583+279.522+131.933+279.379+131.396+279.093C130.858+278.807+130.421+278.43+130.083+277.962C129.745+277.494+129.498+276.952+129.342+276.337C129.186+275.722+129.108+275.085+129.108+274.426C129.108+273.802+129.181+273.187+129.329+272.58C129.476+271.973+129.714+271.432+130.044+270.955C130.373+270.478+130.798+270.093+131.318+269.798C131.838+269.503+132.47+269.356+133.216+269.356C133.926+269.356+134.546+269.495+135.075+269.772C135.603+270.049+136.037+270.422+136.375+270.89C136.713+271.358+136.964+271.891+137.129+272.489C137.293+273.087+137.376+273.698+137.376+274.322Z" opacity="1" fill="#887bec"/>
<path d="M154.224+281.108C153.842+281.333+153.314+281.446+152.638+281.446C152.066+281.446+151.611+281.286+151.273+280.965C150.935+280.644+150.766+280.12+150.766+279.392C150.159+280.12+149.453+280.644+148.647+280.965C147.841+281.286+146.97+281.446+146.034+281.446C145.427+281.446+144.851+281.377+144.305+281.238C143.759+281.099+143.286+280.883+142.888+280.588C142.489+280.293+142.173+279.908+141.939+279.431C141.705+278.954+141.588+278.378+141.588+277.702C141.588+276.939+141.718+276.315+141.978+275.83C142.238+275.345+142.58+274.95+143.005+274.647C143.429+274.344+143.915+274.114+144.461+273.958C145.007+273.802+145.566+273.672+146.138+273.568C146.744+273.447+147.321+273.356+147.867+273.295C148.413+273.234+148.894+273.148+149.31+273.035C149.726+272.922+150.055+272.758+150.298+272.541C150.54+272.324+150.662+272.008+150.662+271.592C150.662+271.107+150.571+270.717+150.389+270.422C150.207+270.127+149.973+269.902+149.687+269.746C149.401+269.59+149.08+269.486+148.725+269.434C148.369+269.382+148.018+269.356+147.672+269.356C146.736+269.356+145.956+269.534+145.332+269.889C144.708+270.244+144.37+270.916+144.318+271.904L142.108+271.904C142.142+271.072+142.316+270.37+142.628+269.798C142.94+269.226+143.356+268.762+143.876+268.407C144.396+268.052+144.989+267.796+145.657+267.64C146.324+267.484+147.039+267.406+147.802+267.406C148.408+267.406+149.011+267.449+149.609+267.536C150.207+267.623+150.748+267.8+151.234+268.069C151.719+268.338+152.109+268.715+152.404+269.2C152.698+269.685+152.846+270.318+152.846+271.098L152.846+278.014C152.846+278.534+152.876+278.915+152.937+279.158C152.997+279.401+153.201+279.522+153.548+279.522C153.738+279.522+153.964+279.479+154.224+279.392L154.224+281.108ZM150.636+274.218C150.358+274.426+149.994+274.578+149.544+274.673C149.093+274.768+148.621+274.846+148.127+274.907C147.633+274.968+147.134+275.037+146.632+275.115C146.129+275.193+145.678+275.319+145.28+275.492C144.881+275.665+144.556+275.912+144.305+276.233C144.053+276.554+143.928+276.991+143.928+277.546C143.928+277.91+144.001+278.218+144.149+278.469C144.296+278.72+144.487+278.924+144.721+279.08C144.955+279.236+145.228+279.349+145.54+279.418C145.852+279.487+146.181+279.522+146.528+279.522C147.256+279.522+147.88+279.422+148.4+279.223C148.92+279.024+149.344+278.772+149.674+278.469C150.003+278.166+150.246+277.836+150.402+277.481C150.558+277.126+150.636+276.792+150.636+276.48L150.636+274.218Z" opacity="1" fill="#887bec"/>
<path d="M157.63+276.922L155.42+276.922C155.454+277.754+155.628+278.46+155.94+279.041C156.252+279.622+156.668+280.09+157.188+280.445C157.708+280.8+158.306+281.056+158.982+281.212C159.658+281.368+160.368+281.446+161.114+281.446C161.79+281.446+162.47+281.381+163.155+281.251C163.839+281.121+164.455+280.891+165.001+280.562C165.547+280.233+165.989+279.799+166.327+279.262C166.665+278.725+166.834+278.049+166.834+277.234C166.834+276.593+166.708+276.055+166.457+275.622C166.205+275.189+165.876+274.829+165.469+274.543C165.061+274.257+164.593+274.027+164.065+273.854C163.536+273.681+162.994+273.533+162.44+273.412C161.92+273.291+161.4+273.174+160.88+273.061C160.36+272.948+159.892+272.81+159.476+272.645C159.06+272.48+158.717+272.272+158.449+272.021C158.18+271.77+158.046+271.453+158.046+271.072C158.046+270.725+158.132+270.444+158.306+270.227C158.479+270.01+158.704+269.837+158.982+269.707C159.259+269.577+159.567+269.486+159.905+269.434C160.243+269.382+160.576+269.356+160.906+269.356C161.27+269.356+161.629+269.395+161.985+269.473C162.34+269.551+162.665+269.677+162.96+269.85C163.254+270.023+163.497+270.253+163.688+270.539C163.878+270.825+163.991+271.185+164.026+271.618L166.236+271.618C166.184+270.803+166.01+270.123+165.716+269.577C165.421+269.031+165.027+268.598+164.533+268.277C164.039+267.956+163.471+267.731+162.83+267.601C162.188+267.471+161.486+267.406+160.724+267.406C160.134+267.406+159.541+267.48+158.943+267.627C158.345+267.774+157.807+268+157.331+268.303C156.854+268.606+156.464+269.001+156.161+269.486C155.857+269.971+155.706+270.552+155.706+271.228C155.706+272.095+155.922+272.771+156.356+273.256C156.789+273.741+157.331+274.118+157.981+274.387C158.631+274.656+159.337+274.864+160.1+275.011C160.862+275.158+161.569+275.323+162.219+275.505C162.869+275.687+163.41+275.925+163.844+276.22C164.277+276.515+164.494+276.948+164.494+277.52C164.494+277.936+164.39+278.278+164.182+278.547C163.974+278.816+163.709+279.019+163.389+279.158C163.068+279.297+162.717+279.392+162.336+279.444C161.954+279.496+161.59+279.522+161.244+279.522C160.793+279.522+160.355+279.479+159.931+279.392C159.506+279.305+159.125+279.162+158.787+278.963C158.449+278.764+158.176+278.495+157.968+278.157C157.76+277.819+157.647+277.407+157.63+276.922Z" opacity="1" fill="#887bec"/>
<path d="M178.612+273.152L170.89+273.152C170.924+272.632+171.037+272.142+171.228+271.683C171.418+271.224+171.678+270.821+172.008+270.474C172.337+270.127+172.731+269.854+173.191+269.655C173.65+269.456+174.166+269.356+174.738+269.356C175.292+269.356+175.799+269.456+176.259+269.655C176.718+269.854+177.117+270.123+177.455+270.461C177.793+270.799+178.061+271.202+178.261+271.67C178.46+272.138+178.577+272.632+178.612+273.152ZM180.744+276.896L178.56+276.896C178.369+277.78+177.975+278.439+177.377+278.872C176.779+279.305+176.012+279.522+175.076+279.522C174.348+279.522+173.715+279.401+173.178+279.158C172.64+278.915+172.198+278.59+171.852+278.183C171.505+277.776+171.254+277.308+171.098+276.779C170.942+276.25+170.872+275.691+170.89+275.102L180.952+275.102C180.986+274.287+180.913+273.429+180.731+272.528C180.549+271.627+180.219+270.795+179.743+270.032C179.266+269.269+178.633+268.641+177.845+268.147C177.056+267.653+176.064+267.406+174.868+267.406C173.949+267.406+173.104+267.579+172.333+267.926C171.561+268.273+170.894+268.758+170.331+269.382C169.767+270.006+169.33+270.743+169.018+271.592C168.706+272.441+168.55+273.377+168.55+274.4C168.584+275.423+168.736+276.367+169.005+277.234C169.273+278.101+169.676+278.846+170.214+279.47C170.751+280.094+171.414+280.579+172.203+280.926C172.991+281.273+173.923+281.446+174.998+281.446C176.523+281.446+177.788+281.065+178.794+280.302C179.799+279.539+180.449+278.404+180.744+276.896Z" opacity="1" fill="#887bec"/>
</g>
</g>
</svg>
