<?xml version="1.0" encoding="UTF-8" standalone="no"?> <!-- Created with Vectornator for iOS (http://vectornator.io/) --><!DOCTYPE svg PUBLIC "-//W3C//DTD SVG 1.1//EN" "http://www.w3.org/Graphics/SVG/1.1/DTD/svg11.dtd">
<svg height="100%" style="fill-rule:nonzero;clip-rule:evenodd;stroke-linecap:round;stroke-linejoin:round;" xmlns:xlink="http://www.w3.org/1999/xlink" xmlns="http://www.w3.org/2000/svg" xml:space="preserve" width="100%" xmlns:vectornator="http://vectornator.io" version="1.1" viewBox="0 0 250 325">
<metadata>
<vectornator:setting key="DimensionsVisible" value="0"/>
<vectornator:setting key="PencilOnly" value="0"/>
<vectornator:setting key="SnapToPoints" value="0"/>
<vectornator:setting key="OutlineMode" value="0"/>
<vectornator:setting key="CMYKEnabledKey" value="0"/>
<vectornator:setting key="RulersVisible" value="1"/>
<vectornator:setting key="SnapToEdges" value="0"/>
<vectornator:setting key="GuidesVisible" value="0"/>
<vectornator:setting key="DisplayWhiteBackground" value="0"/>
<vectornator:setting key="doHistoryDisabled" value="0"/>
<vectornator:setting key="SnapToGuides" value="1"/>
<vectornator:setting key="TimeLapseWatermarkDisabled" value="0"/>
<vectornator:setting key="Units" value="Points"/>
<vectornator:setting key="DynamicGuides" value="1"/>
<vectornator:setting key="IsolateActiveLayer" value="0"/>
<vectornator:setting key="SnapToGrid" value="0"/>
</metadata>
<defs>
<linearGradient y1="1930.74" id="LinearGradient" x1="-2115" y2="1929.74" x2="-2115" gradientUnits="userSpaceOnUse" gradientTransform="matrix(26.4678 -26.4687 -3.69488 -3.69474 63251.9 -48672.9)">
<stop stop-opacity="0.15" stop-color="#000000" offset="0.2"/>
<stop stop-opacity="0.01" stop-color="#616161" offset="0.85"/>
</linearGradient>
<linearGradient y1="1946.36" id="LinearGradient_2" x1="-2115.27" y2="1946.36" x2="-2114.27" gradientUnits="userSpaceOnUse" gradientTransform="matrix(39.3319 0 0 -26.5063 83322.8 51765.7)">
<stop stop-opacity="0.55" stop-color="#000000" offset="0.2"/>
<stop stop-opacity="0.01" stop-color="#616161" offset="0.85"/>
</linearGradient>
</defs>
<g id="Layer 1" vectornator:layerName="Layer 1">
<path d="M22.7904+2.84217e-14L225.29+2.84217e-14C239.098+2.84217e-14+250.29+11.1929+250.29+25L250.29+300C250.29+313.807+239.098+325+225.29+325L22.7904+325C10.364+325+0.290398+314.926+0.290398+302.5L0.290398+22.5C0.290398+10.0736+10.364+2.84217e-14+22.7904+2.84217e-14Z" opacity="1" fill="#ffffff"/>
<path d="M85.5612+148.552L59.052+122.043L145.127+35.9746L198.139+35.9746M198.139+115.398L145.127+115.398L125.269+135.256L151.779+161.765" fill-rule="evenodd" fill-opacity="0.8" fill="#42a5f5" opacity="1"/>
<path d="M125.269+188.267L145.127+208.125L198.139+208.125L151.779+161.765" fill-rule="evenodd" fill="#0d47a1" opacity="1"/>
<path d="M98.8228+161.779L125.29+135.304L151.758+161.772L125.29+188.246L98.8228+161.779Z" fill-rule="evenodd" fill="#42a5f5" opacity="1"/>
<path d="M125.29+188.246L151.758+161.779L155.452+165.473L128.985+191.941L125.29+188.246Z" fill-rule="evenodd" fill="url(#LinearGradient)" opacity="1"/>
<path d="M125.269+188.267L164.602+174.679L151.779+161.758" fill-rule="evenodd" fill="url(#LinearGradient_2)" opacity="1"/>
<g opacity="1">
<path d="M89.949+262.596L89.949+281.16L92.419+281.16L92.419+272.658L100.947+272.658L100.947+270.578L92.419+270.578L92.419+264.676L102.143+264.676L102.143+262.596L89.949+262.596Z" opacity="1" fill="#887bec"/>
<path d="M104.639+262.596L104.639+281.16L106.849+281.16L106.849+262.596L104.639+262.596Z" opacity="1" fill="#887bec"/>
<path d="M121.409+281.16L121.409+267.718L119.199+267.718L119.199+275.31C119.199+275.917+119.117+276.476+118.952+276.987C118.787+277.498+118.54+277.945+118.211+278.326C117.882+278.707+117.47+279.002+116.976+279.21C116.482+279.418+115.897+279.522+115.221+279.522C114.372+279.522+113.704+279.279+113.219+278.794C112.734+278.309+112.491+277.65+112.491+276.818L112.491+267.718L110.281+267.718L110.281+276.558C110.281+277.286+110.355+277.949+110.502+278.547C110.649+279.145+110.905+279.661+111.269+280.094C111.633+280.527+112.11+280.861+112.699+281.095C113.288+281.329+114.025+281.446+114.909+281.446C115.897+281.446+116.755+281.251+117.483+280.861C118.211+280.471+118.809+279.86+119.277+279.028L119.329+279.028L119.329+281.16L121.409+281.16Z" opacity="1" fill="#887bec"/>
<path d="M127.805+267.718L127.805+263.688L125.595+263.688L125.595+267.718L123.307+267.718L123.307+269.668L125.595+269.668L125.595+278.222C125.595+278.846+125.656+279.349+125.777+279.73C125.898+280.111+126.085+280.406+126.336+280.614C126.587+280.822+126.917+280.965+127.324+281.043C127.731+281.121+128.221+281.16+128.793+281.16L130.483+281.16L130.483+279.21L129.469+279.21C129.122+279.21+128.841+279.197+128.624+279.171C128.407+279.145+128.238+279.089+128.117+279.002C127.996+278.915+127.913+278.794+127.87+278.638C127.827+278.482+127.805+278.274+127.805+278.014L127.805+269.668L130.483+269.668L130.483+267.718L127.805+267.718Z" opacity="1" fill="#887bec"/>
<path d="M135.995+267.718L135.995+263.688L133.785+263.688L133.785+267.718L131.497+267.718L131.497+269.668L133.785+269.668L133.785+278.222C133.785+278.846+133.846+279.349+133.967+279.73C134.088+280.111+134.275+280.406+134.526+280.614C134.777+280.822+135.107+280.965+135.514+281.043C135.921+281.121+136.411+281.16+136.983+281.16L138.673+281.16L138.673+279.21L137.659+279.21C137.312+279.21+137.031+279.197+136.814+279.171C136.597+279.145+136.428+279.089+136.307+279.002C136.186+278.915+136.103+278.794+136.06+278.638C136.017+278.482+135.995+278.274+135.995+278.014L135.995+269.668L138.673+269.668L138.673+267.718L135.995+267.718Z" opacity="1" fill="#887bec"/>
<path d="M150.451+273.152L142.729+273.152C142.764+272.632+142.876+272.142+143.067+271.683C143.258+271.224+143.518+270.821+143.847+270.474C144.176+270.127+144.571+269.854+145.03+269.655C145.489+269.456+146.005+269.356+146.577+269.356C147.132+269.356+147.639+269.456+148.098+269.655C148.557+269.854+148.956+270.123+149.294+270.461C149.632+270.799+149.901+271.202+150.1+271.67C150.299+272.138+150.416+272.632+150.451+273.152ZM152.583+276.896L150.399+276.896C150.208+277.78+149.814+278.439+149.216+278.872C148.618+279.305+147.851+279.522+146.915+279.522C146.187+279.522+145.554+279.401+145.017+279.158C144.48+278.915+144.038+278.59+143.691+278.183C143.344+277.776+143.093+277.308+142.937+276.779C142.781+276.25+142.712+275.691+142.729+275.102L152.791+275.102C152.826+274.287+152.752+273.429+152.57+272.528C152.388+271.627+152.059+270.795+151.582+270.032C151.105+269.269+150.473+268.641+149.684+268.147C148.895+267.653+147.903+267.406+146.707+267.406C145.788+267.406+144.943+267.579+144.172+267.926C143.401+268.273+142.733+268.758+142.17+269.382C141.607+270.006+141.169+270.743+140.857+271.592C140.545+272.441+140.389+273.377+140.389+274.4C140.424+275.423+140.575+276.367+140.844+277.234C141.113+278.101+141.516+278.846+142.053+279.47C142.59+280.094+143.253+280.579+144.042+280.926C144.831+281.273+145.762+281.446+146.837+281.446C148.362+281.446+149.628+281.065+150.633+280.302C151.638+279.539+152.288+278.404+152.583+276.896Z" opacity="1" fill="#887bec"/>
<path d="M155.001+267.718L155.001+281.16L157.211+281.16L157.211+275.18C157.211+274.313+157.298+273.546+157.471+272.879C157.644+272.212+157.922+271.644+158.303+271.176C158.684+270.708+159.187+270.353+159.811+270.11C160.435+269.867+161.189+269.746+162.073+269.746L162.073+267.406C160.877+267.371+159.889+267.614+159.109+268.134C158.329+268.654+157.67+269.46+157.133+270.552L157.081+270.552L157.081+267.718L155.001+267.718Z" opacity="1" fill="#887bec"/>
</g>
</g>
</svg>
