<?xml version="1.0" encoding="UTF-8" standalone="no"?> <!-- Created with Vectornator for iOS (http://vectornator.io/) --><!DOCTYPE svg PUBLIC "-//W3C//DTD SVG 1.1//EN" "http://www.w3.org/Graphics/SVG/1.1/DTD/svg11.dtd">
<svg height="100%" style="fill-rule:nonzero;clip-rule:evenodd;stroke-linecap:round;stroke-linejoin:round;" xmlns:xlink="http://www.w3.org/1999/xlink" xmlns="http://www.w3.org/2000/svg" xml:space="preserve" width="100%" xmlns:vectornator="http://vectornator.io" version="1.1" viewBox="0 0 250 325">
<metadata>
<vectornator:setting key="DimensionsVisible" value="0"/>
<vectornator:setting key="PencilOnly" value="0"/>
<vectornator:setting key="SnapToPoints" value="0"/>
<vectornator:setting key="OutlineMode" value="0"/>
<vectornator:setting key="CMYKEnabledKey" value="0"/>
<vectornator:setting key="RulersVisible" value="1"/>
<vectornator:setting key="SnapToEdges" value="0"/>
<vectornator:setting key="GuidesVisible" value="0"/>
<vectornator:setting key="DisplayWhiteBackground" value="0"/>
<vectornator:setting key="doHistoryDisabled" value="0"/>
<vectornator:setting key="SnapToGuides" value="1"/>
<vectornator:setting key="TimeLapseWatermarkDisabled" value="0"/>
<vectornator:setting key="Units" value="Points"/>
<vectornator:setting key="DynamicGuides" value="1"/>
<vectornator:setting key="IsolateActiveLayer" value="0"/>
<vectornator:setting key="SnapToGrid" value="0"/>
</metadata>
<defs/>
<g id="Layer 1" vectornator:layerName="Layer 1">
<path d="M22.6265+3.55271e-15L225.126+3.55271e-15C238.934+3.55271e-15+250.126+11.1929+250.126+25L250.126+300C250.126+313.807+238.934+325+225.126+325L22.6265+325C10.2001+325+0.126456+314.926+0.126456+302.5L0.126456+22.5C0.126456+10.0736+10.2+3.55271e-15+22.6265+3.55271e-15Z" opacity="1" fill="#ffffff"/>
<g opacity="1">
<path d="M107.778+141.077C107.778+141.077+102.729+144.014+111.374+145.007C121.85+146.203+127.201+146.031+138.741+143.848C138.741+143.848+141.779+145.75+146.021+147.396C120.143+158.484+87.4543+146.754+107.778+141.077ZM104.614+126.606C104.614+126.606+98.9509+130.798+107.603+131.693C118.794+132.849+127.627+132.943+142.922+130C142.922+130+145.034+132.144+148.357+133.315C117.074+142.465+82.2317+134.035+104.614+126.606Z" fill-rule="evenodd" fill="#3174b9" opacity="1"/>
<path d="M131.27+102.057C137.649+109.4+129.598+116.005+129.598+116.005C129.598+116.005+145.788+107.648+138.352+97.1802C131.409+87.4226+126.083+82.5751+154.911+65.8581C154.91+65.857+109.659+77.1552+131.27+102.057Z" fill-rule="evenodd" fill="#ca3132" opacity="1"/>
<path d="M165.494+151.781C165.494+151.781+169.231+154.862+161.378+157.244C146.445+161.767+99.214+163.131+86.0946+157.424C81.3819+155.372+90.224+152.526+93.0057+151.925C95.907+151.298+97.5627+151.412+97.5627+151.412C92.3183+147.719+63.6639+158.665+83.0102+161.806C135.764+170.359+179.176+157.955+165.494+151.781ZM110.206+111.612C110.206+111.612+86.1845+117.319+101.701+119.394C108.255+120.27+121.309+120.068+133.479+119.047C143.422+118.213+153.402+116.428+153.402+116.428C153.402+116.428+149.899+117.931+147.361+119.661C122.963+126.079+75.8381+123.09+89.406+116.53C100.877+110.981+110.206+111.612+110.206+111.612ZM153.302+135.699C178.102+122.815+166.636+110.431+158.63+112.1C156.673+112.509+155.795+112.862+155.795+112.862C155.795+112.862+156.525+111.72+157.913+111.228C173.747+105.664+185.923+127.645+152.808+136.35C152.807+136.35+153.188+136.006+153.302+135.699Z" fill-rule="evenodd" fill="#3174b9" opacity="1"/>
<path d="M138.352+38.8572C138.352+38.8572+152.083+52.5973+125.325+73.7188C103.865+90.6682+120.432+100.329+125.318+111.372C112.79+100.071+103.6+90.12+109.764+80.8613C118.815+67.2704+143.892+60.6794+138.352+38.8572Z" fill-rule="evenodd" fill="#ca3132" opacity="1"/>
<path d="M112.646+170.621C136.446+172.143+173.002+169.776+173.869+158.512C173.869+158.512+172.205+162.782+154.197+166.169C133.88+169.993+108.818+169.548+93.9586+167.095C93.9586+167.095+97.0035+169.615+112.646+170.621Z" fill-rule="evenodd" fill="#3174b9" opacity="1"/>
</g>
<g opacity="1">
<path d="M109.257+275.882L109.257+261.946L106.787+261.946L106.787+275.518C106.787+276.541+106.575+277.355+106.15+277.962C105.725+278.569+104.95+278.872+103.823+278.872C103.216+278.872+102.718+278.781+102.328+278.599C101.938+278.417+101.635+278.161+101.418+277.832C101.201+277.503+101.05+277.113+100.963+276.662C100.876+276.211+100.833+275.717+100.833+275.18L100.833+274.4L98.363+274.4L98.363+275.544C98.363+277.312+98.831+278.651+99.767+279.561C100.703+280.471+102.038+280.926+103.771+280.926C104.811+280.926+105.682+280.783+106.384+280.497C107.086+280.211+107.649+279.83+108.074+279.353C108.499+278.876+108.802+278.335+108.984+277.728C109.166+277.121+109.257+276.506+109.257+275.882Z" opacity="1" fill="#887bec"/>
<path d="M124.857+280.458C124.476+280.683+123.947+280.796+123.271+280.796C122.699+280.796+122.244+280.636+121.906+280.315C121.568+279.994+121.399+279.47+121.399+278.742C120.792+279.47+120.086+279.994+119.28+280.315C118.474+280.636+117.603+280.796+116.667+280.796C116.06+280.796+115.484+280.727+114.938+280.588C114.392+280.449+113.92+280.233+113.521+279.938C113.122+279.643+112.806+279.258+112.572+278.781C112.338+278.304+112.221+277.728+112.221+277.052C112.221+276.289+112.351+275.665+112.611+275.18C112.871+274.695+113.213+274.3+113.638+273.997C114.063+273.694+114.548+273.464+115.094+273.308C115.64+273.152+116.199+273.022+116.771+272.918C117.378+272.797+117.954+272.706+118.5+272.645C119.046+272.584+119.527+272.498+119.943+272.385C120.359+272.272+120.688+272.108+120.931+271.891C121.174+271.674+121.295+271.358+121.295+270.942C121.295+270.457+121.204+270.067+121.022+269.772C120.84+269.477+120.606+269.252+120.32+269.096C120.034+268.94+119.713+268.836+119.358+268.784C119.003+268.732+118.652+268.706+118.305+268.706C117.369+268.706+116.589+268.884+115.965+269.239C115.341+269.594+115.003+270.266+114.951+271.254L112.741+271.254C112.776+270.422+112.949+269.72+113.261+269.148C113.573+268.576+113.989+268.112+114.509+267.757C115.029+267.402+115.623+267.146+116.29+266.99C116.957+266.834+117.672+266.756+118.435+266.756C119.042+266.756+119.644+266.799+120.242+266.886C120.84+266.973+121.382+267.15+121.867+267.419C122.352+267.688+122.742+268.065+123.037+268.55C123.332+269.035+123.479+269.668+123.479+270.448L123.479+277.364C123.479+277.884+123.509+278.265+123.57+278.508C123.631+278.751+123.834+278.872+124.181+278.872C124.372+278.872+124.597+278.829+124.857+278.742L124.857+280.458ZM121.269+273.568C120.992+273.776+120.628+273.928+120.177+274.023C119.726+274.118+119.254+274.196+118.76+274.257C118.266+274.318+117.768+274.387+117.265+274.465C116.762+274.543+116.312+274.669+115.913+274.842C115.514+275.015+115.189+275.262+114.938+275.583C114.687+275.904+114.561+276.341+114.561+276.896C114.561+277.26+114.635+277.568+114.782+277.819C114.929+278.07+115.12+278.274+115.354+278.43C115.588+278.586+115.861+278.699+116.173+278.768C116.485+278.837+116.814+278.872+117.161+278.872C117.889+278.872+118.513+278.772+119.033+278.573C119.553+278.374+119.978+278.122+120.307+277.819C120.636+277.516+120.879+277.186+121.035+276.831C121.191+276.476+121.269+276.142+121.269+275.83L121.269+273.568Z" opacity="1" fill="#887bec"/>
<path d="M132.969+280.51L137.883+267.068L135.569+267.068L131.903+278.274L131.851+278.274L128.081+267.068L125.611+267.068L130.603+280.51L132.969+280.51Z" opacity="1" fill="#887bec"/>
<path d="M151.819+280.458C151.438+280.683+150.909+280.796+150.233+280.796C149.661+280.796+149.206+280.636+148.868+280.315C148.53+279.994+148.361+279.47+148.361+278.742C147.754+279.47+147.048+279.994+146.242+280.315C145.436+280.636+144.565+280.796+143.629+280.796C143.022+280.796+142.446+280.727+141.9+280.588C141.354+280.449+140.882+280.233+140.483+279.938C140.084+279.643+139.768+279.258+139.534+278.781C139.3+278.304+139.183+277.728+139.183+277.052C139.183+276.289+139.313+275.665+139.573+275.18C139.833+274.695+140.175+274.3+140.6+273.997C141.025+273.694+141.51+273.464+142.056+273.308C142.602+273.152+143.161+273.022+143.733+272.918C144.34+272.797+144.916+272.706+145.462+272.645C146.008+272.584+146.489+272.498+146.905+272.385C147.321+272.272+147.65+272.108+147.893+271.891C148.136+271.674+148.257+271.358+148.257+270.942C148.257+270.457+148.166+270.067+147.984+269.772C147.802+269.477+147.568+269.252+147.282+269.096C146.996+268.94+146.675+268.836+146.32+268.784C145.965+268.732+145.614+268.706+145.267+268.706C144.331+268.706+143.551+268.884+142.927+269.239C142.303+269.594+141.965+270.266+141.913+271.254L139.703+271.254C139.738+270.422+139.911+269.72+140.223+269.148C140.535+268.576+140.951+268.112+141.471+267.757C141.991+267.402+142.585+267.146+143.252+266.99C143.919+266.834+144.634+266.756+145.397+266.756C146.004+266.756+146.606+266.799+147.204+266.886C147.802+266.973+148.344+267.15+148.829+267.419C149.314+267.688+149.704+268.065+149.999+268.55C150.294+269.035+150.441+269.668+150.441+270.448L150.441+277.364C150.441+277.884+150.471+278.265+150.532+278.508C150.593+278.751+150.796+278.872+151.143+278.872C151.334+278.872+151.559+278.829+151.819+278.742L151.819+280.458ZM148.231+273.568C147.954+273.776+147.59+273.928+147.139+274.023C146.688+274.118+146.216+274.196+145.722+274.257C145.228+274.318+144.73+274.387+144.227+274.465C143.724+274.543+143.274+274.669+142.875+274.842C142.476+275.015+142.151+275.262+141.9+275.583C141.649+275.904+141.523+276.341+141.523+276.896C141.523+277.26+141.597+277.568+141.744+277.819C141.891+278.07+142.082+278.274+142.316+278.43C142.55+278.586+142.823+278.699+143.135+278.768C143.447+278.837+143.776+278.872+144.123+278.872C144.851+278.872+145.475+278.772+145.995+278.573C146.515+278.374+146.94+278.122+147.269+277.819C147.598+277.516+147.841+277.186+147.997+276.831C148.153+276.476+148.231+276.142+148.231+275.83L148.231+273.568Z" opacity="1" fill="#887bec"/>
</g>
</g>
</svg>
