<?xml version="1.0" encoding="UTF-8" standalone="no"?> <!-- Created with Vectornator for iOS (http://vectornator.io/) --><!DOCTYPE svg PUBLIC "-//W3C//DTD SVG 1.1//EN" "http://www.w3.org/Graphics/SVG/1.1/DTD/svg11.dtd">
<svg height="100%" style="fill-rule:nonzero;clip-rule:evenodd;stroke-linecap:round;stroke-linejoin:round;" xmlns:xlink="http://www.w3.org/1999/xlink" xmlns="http://www.w3.org/2000/svg" xml:space="preserve" width="100%" xmlns:vectornator="http://vectornator.io" version="1.1" viewBox="0 0 250 325">
<metadata>
<vectornator:setting key="DimensionsVisible" value="0"/>
<vectornator:setting key="PencilOnly" value="0"/>
<vectornator:setting key="SnapToPoints" value="0"/>
<vectornator:setting key="OutlineMode" value="0"/>
<vectornator:setting key="CMYKEnabledKey" value="0"/>
<vectornator:setting key="RulersVisible" value="1"/>
<vectornator:setting key="SnapToEdges" value="0"/>
<vectornator:setting key="GuidesVisible" value="0"/>
<vectornator:setting key="DisplayWhiteBackground" value="0"/>
<vectornator:setting key="doHistoryDisabled" value="0"/>
<vectornator:setting key="SnapToGuides" value="1"/>
<vectornator:setting key="TimeLapseWatermarkDisabled" value="0"/>
<vectornator:setting key="Units" value="Points"/>
<vectornator:setting key="DynamicGuides" value="1"/>
<vectornator:setting key="IsolateActiveLayer" value="0"/>
<vectornator:setting key="SnapToGrid" value="0"/>
</metadata>
<defs/>
<g id="Layer 1" vectornator:layerName="Layer 1">
<path d="M22.5+0L225+0C238.807+0+250+11.1929+250+25L250+300C250+313.807+238.807+325+225+325L22.5+325C10.0736+325+0+314.926+0+302.5L0+22.5C0+10.0736+10.0736+0+22.5+0Z" fill-rule="evenodd" fill="#ffffff" opacity="1"/>
<g opacity="1">
<path d="M74.833+277.142L74.833+263.206L72.363+263.206L72.363+276.778C72.363+277.801+72.1507+278.615+71.726+279.222C71.3013+279.829+70.5257+280.132+69.399+280.132C68.7923+280.132+68.294+280.041+67.904+279.859C67.514+279.677+67.2107+279.421+66.994+279.092C66.7773+278.763+66.6257+278.373+66.539+277.922C66.4523+277.471+66.409+276.977+66.409+276.44L66.409+275.66L63.939+275.66L63.939+276.804C63.939+278.572+64.407+279.911+65.343+280.821C66.279+281.731+67.6137+282.186+69.347+282.186C70.387+282.186+71.258+282.043+71.96+281.757C72.662+281.471+73.2253+281.09+73.65+280.613C74.0747+280.136+74.378+279.595+74.56+278.988C74.742+278.381+74.833+277.766+74.833+277.142Z" opacity="1" fill="#887bec"/>
<path d="M90.433+281.718C90.0517+281.943+89.523+282.056+88.847+282.056C88.275+282.056+87.82+281.896+87.482+281.575C87.144+281.254+86.975+280.73+86.975+280.002C86.3683+280.73+85.662+281.254+84.856+281.575C84.05+281.896+83.179+282.056+82.243+282.056C81.6363+282.056+81.06+281.987+80.514+281.848C79.968+281.709+79.4957+281.493+79.097+281.198C78.6983+280.903+78.382+280.518+78.148+280.041C77.914+279.564+77.797+278.988+77.797+278.312C77.797+277.549+77.927+276.925+78.187+276.44C78.447+275.955+78.7893+275.56+79.214+275.257C79.6387+274.954+80.124+274.724+80.67+274.568C81.216+274.412+81.775+274.282+82.347+274.178C82.9537+274.057+83.53+273.966+84.076+273.905C84.622+273.844+85.103+273.758+85.519+273.645C85.935+273.532+86.2643+273.368+86.507+273.151C86.7497+272.934+86.871+272.618+86.871+272.202C86.871+271.717+86.78+271.327+86.598+271.032C86.416+270.737+86.182+270.512+85.896+270.356C85.61+270.2+85.2893+270.096+84.934+270.044C84.5787+269.992+84.2277+269.966+83.881+269.966C82.945+269.966+82.165+270.144+81.541+270.499C80.917+270.854+80.579+271.526+80.527+272.514L78.317+272.514C78.3517+271.682+78.525+270.98+78.837+270.408C79.149+269.836+79.565+269.372+80.085+269.017C80.605+268.662+81.1987+268.406+81.866+268.25C82.5333+268.094+83.2483+268.016+84.011+268.016C84.6177+268.016+85.22+268.059+85.818+268.146C86.416+268.233+86.9577+268.41+87.443+268.679C87.9283+268.948+88.3183+269.325+88.613+269.81C88.9077+270.295+89.055+270.928+89.055+271.708L89.055+278.624C89.055+279.144+89.0853+279.525+89.146+279.768C89.2067+280.011+89.4103+280.132+89.757+280.132C89.9477+280.132+90.173+280.089+90.433+280.002L90.433+281.718ZM86.845+274.828C86.5677+275.036+86.2037+275.188+85.753+275.283C85.3023+275.378+84.83+275.456+84.336+275.517C83.842+275.578+83.3437+275.647+82.841+275.725C82.3383+275.803+81.8877+275.929+81.489+276.102C81.0903+276.275+80.7653+276.522+80.514+276.843C80.2627+277.164+80.137+277.601+80.137+278.156C80.137+278.52+80.2107+278.828+80.358+279.079C80.5053+279.33+80.696+279.534+80.93+279.69C81.164+279.846+81.437+279.959+81.749+280.028C82.061+280.097+82.3903+280.132+82.737+280.132C83.465+280.132+84.089+280.032+84.609+279.833C85.129+279.634+85.5537+279.382+85.883+279.079C86.2123+278.776+86.455+278.446+86.611+278.091C86.767+277.736+86.845+277.402+86.845+277.09L86.845+274.828Z" opacity="1" fill="#887bec"/>
<path d="M98.545+281.77L103.459+268.328L101.145+268.328L97.479+279.534L97.427+279.534L93.657+268.328L91.187+268.328L96.179+281.77L98.545+281.77Z" opacity="1" fill="#887bec"/>
<path d="M117.395+281.718C117.014+281.943+116.485+282.056+115.809+282.056C115.237+282.056+114.782+281.896+114.444+281.575C114.106+281.254+113.937+280.73+113.937+280.002C113.33+280.73+112.624+281.254+111.818+281.575C111.012+281.896+110.141+282.056+109.205+282.056C108.598+282.056+108.022+281.987+107.476+281.848C106.93+281.709+106.458+281.493+106.059+281.198C105.66+280.903+105.344+280.518+105.11+280.041C104.876+279.564+104.759+278.988+104.759+278.312C104.759+277.549+104.889+276.925+105.149+276.44C105.409+275.955+105.751+275.56+106.176+275.257C106.601+274.954+107.086+274.724+107.632+274.568C108.178+274.412+108.737+274.282+109.309+274.178C109.916+274.057+110.492+273.966+111.038+273.905C111.584+273.844+112.065+273.758+112.481+273.645C112.897+273.532+113.226+273.368+113.469+273.151C113.712+272.934+113.833+272.618+113.833+272.202C113.833+271.717+113.742+271.327+113.56+271.032C113.378+270.737+113.144+270.512+112.858+270.356C112.572+270.2+112.251+270.096+111.896+270.044C111.541+269.992+111.19+269.966+110.843+269.966C109.907+269.966+109.127+270.144+108.503+270.499C107.879+270.854+107.541+271.526+107.489+272.514L105.279+272.514C105.314+271.682+105.487+270.98+105.799+270.408C106.111+269.836+106.527+269.372+107.047+269.017C107.567+268.662+108.161+268.406+108.828+268.25C109.495+268.094+110.21+268.016+110.973+268.016C111.58+268.016+112.182+268.059+112.78+268.146C113.378+268.233+113.92+268.41+114.405+268.679C114.89+268.948+115.28+269.325+115.575+269.81C115.87+270.295+116.017+270.928+116.017+271.708L116.017+278.624C116.017+279.144+116.047+279.525+116.108+279.768C116.169+280.011+116.372+280.132+116.719+280.132C116.91+280.132+117.135+280.089+117.395+280.002L117.395+281.718ZM113.807+274.828C113.53+275.036+113.166+275.188+112.715+275.283C112.264+275.378+111.792+275.456+111.298+275.517C110.804+275.578+110.306+275.647+109.803+275.725C109.3+275.803+108.85+275.929+108.451+276.102C108.052+276.275+107.727+276.522+107.476+276.843C107.225+277.164+107.099+277.601+107.099+278.156C107.099+278.52+107.173+278.828+107.32+279.079C107.467+279.33+107.658+279.534+107.892+279.69C108.126+279.846+108.399+279.959+108.711+280.028C109.023+280.097+109.352+280.132+109.699+280.132C110.427+280.132+111.051+280.032+111.571+279.833C112.091+279.634+112.516+279.382+112.845+279.079C113.174+278.776+113.417+278.446+113.573+278.091C113.729+277.736+113.807+277.402+113.807+277.09L113.807+274.828Z" opacity="1" fill="#887bec"/>
<path d="M130.551+268.64L132.891+268.64C132.856+267.617+132.661+266.738+132.306+266.001C131.951+265.264+131.465+264.653+130.85+264.168C130.235+263.683+129.52+263.327+128.705+263.102C127.89+262.877+127.006+262.764+126.053+262.764C125.204+262.764+124.376+262.872+123.57+263.089C122.764+263.306+122.045+263.635+121.412+264.077C120.779+264.519+120.272+265.082+119.891+265.767C119.51+266.452+119.319+267.262+119.319+268.198C119.319+269.047+119.488+269.754+119.826+270.317C120.164+270.88+120.615+271.34+121.178+271.695C121.741+272.05+122.378+272.336+123.089+272.553C123.8+272.77+124.523+272.96+125.26+273.125C125.997+273.29+126.72+273.45+127.431+273.606C128.142+273.762+128.779+273.966+129.342+274.217C129.905+274.468+130.356+274.793+130.694+275.192C131.032+275.591+131.201+276.111+131.201+276.752C131.201+277.428+131.062+277.983+130.785+278.416C130.508+278.849+130.144+279.192+129.693+279.443C129.242+279.694+128.735+279.872+128.172+279.976C127.609+280.08+127.05+280.132+126.495+280.132C125.802+280.132+125.126+280.045+124.467+279.872C123.808+279.699+123.232+279.43+122.738+279.066C122.244+278.702+121.845+278.238+121.542+277.675C121.239+277.112+121.087+276.44+121.087+275.66L118.747+275.66C118.747+276.787+118.951+277.762+119.358+278.585C119.765+279.408+120.32+280.084+121.022+280.613C121.724+281.142+122.539+281.536+123.466+281.796C124.393+282.056+125.377+282.186+126.417+282.186C127.266+282.186+128.12+282.086+128.978+281.887C129.836+281.688+130.612+281.367+131.305+280.925C131.998+280.483+132.566+279.911+133.008+279.209C133.45+278.507+133.671+277.662+133.671+276.674C133.671+275.755+133.502+274.993+133.164+274.386C132.826+273.779+132.375+273.277+131.812+272.878C131.249+272.479+130.612+272.163+129.901+271.929C129.19+271.695+128.467+271.491+127.73+271.318C126.993+271.145+126.27+270.984+125.559+270.837C124.848+270.69+124.211+270.503+123.648+270.278C123.085+270.053+122.634+269.762+122.296+269.407C121.958+269.052+121.789+268.588+121.789+268.016C121.789+267.409+121.906+266.902+122.14+266.495C122.374+266.088+122.686+265.763+123.076+265.52C123.466+265.277+123.912+265.104+124.415+265C124.918+264.896+125.429+264.844+125.949+264.844C127.232+264.844+128.285+265.143+129.108+265.741C129.931+266.339+130.412+267.305+130.551+268.64Z" opacity="1" fill="#887bec"/>
<path d="M145.423+272.644L147.711+272.644C147.624+271.847+147.416+271.158+147.087+270.577C146.758+269.996+146.337+269.515+145.826+269.134C145.315+268.753+144.725+268.471+144.058+268.289C143.391+268.107+142.676+268.016+141.913+268.016C140.856+268.016+139.928+268.202+139.131+268.575C138.334+268.948+137.671+269.459+137.142+270.109C136.613+270.759+136.219+271.522+135.959+272.397C135.699+273.272+135.569+274.213+135.569+275.218C135.569+276.223+135.703+277.146+135.972+277.987C136.241+278.828+136.639+279.551+137.168+280.158C137.697+280.765+138.355+281.233+139.144+281.562C139.933+281.891+140.838+282.056+141.861+282.056C143.577+282.056+144.933+281.605+145.93+280.704C146.927+279.803+147.546+278.52+147.789+276.856L145.527+276.856C145.388+277.896+145.011+278.702+144.396+279.274C143.781+279.846+142.927+280.132+141.835+280.132C141.142+280.132+140.544+279.993+140.041+279.716C139.538+279.439+139.131+279.07+138.819+278.611C138.507+278.152+138.277+277.627+138.13+277.038C137.983+276.449+137.909+275.842+137.909+275.218C137.909+274.542+137.978+273.888+138.117+273.255C138.256+272.622+138.485+272.063+138.806+271.578C139.127+271.093+139.556+270.703+140.093+270.408C140.63+270.113+141.298+269.966+142.095+269.966C143.031+269.966+143.776+270.2+144.331+270.668C144.886+271.136+145.25+271.795+145.423+272.644Z" opacity="1" fill="#887bec"/>
<path d="M150.181+268.328L150.181+281.77L152.391+281.77L152.391+275.79C152.391+274.923+152.478+274.156+152.651+273.489C152.824+272.822+153.102+272.254+153.483+271.786C153.864+271.318+154.367+270.963+154.991+270.72C155.615+270.477+156.369+270.356+157.253+270.356L157.253+268.016C156.057+267.981+155.069+268.224+154.289+268.744C153.509+269.264+152.85+270.07+152.313+271.162L152.261+271.162L152.261+268.328L150.181+268.328Z" opacity="1" fill="#887bec"/>
<path d="M161.257+265.91L161.257+263.206L159.047+263.206L159.047+265.91L161.257+265.91ZM159.047+268.328L159.047+281.77L161.257+281.77L161.257+268.328L159.047+268.328Z" opacity="1" fill="#887bec"/>
<path d="M164.767+268.328L164.767+286.892L166.977+286.892L166.977+279.976L167.029+279.976C167.272+280.375+167.571+280.708+167.926+280.977C168.281+281.246+168.658+281.458+169.057+281.614C169.456+281.77+169.859+281.883+170.266+281.952C170.673+282.021+171.042+282.056+171.371+282.056C172.394+282.056+173.291+281.874+174.062+281.51C174.833+281.146+175.475+280.648+175.986+280.015C176.497+279.382+176.879+278.641+177.13+277.792C177.381+276.943+177.507+276.041+177.507+275.088C177.507+274.135+177.377+273.233+177.117+272.384C176.857+271.535+176.471+270.785+175.96+270.135C175.449+269.485+174.807+268.969+174.036+268.588C173.265+268.207+172.359+268.016+171.319+268.016C170.383+268.016+169.525+268.185+168.745+268.523C167.965+268.861+167.393+269.403+167.029+270.148L166.977+270.148L166.977+268.328L164.767+268.328ZM175.167+274.932C175.167+275.591+175.098+276.232+174.959+276.856C174.82+277.48+174.595+278.035+174.283+278.52C173.971+279.005+173.559+279.395+173.048+279.69C172.537+279.985+171.9+280.132+171.137+280.132C170.374+280.132+169.724+279.989+169.187+279.703C168.65+279.417+168.212+279.04+167.874+278.572C167.536+278.104+167.289+277.562+167.133+276.947C166.977+276.332+166.899+275.695+166.899+275.036C166.899+274.412+166.973+273.797+167.12+273.19C167.267+272.583+167.506+272.042+167.835+271.565C168.164+271.088+168.589+270.703+169.109+270.408C169.629+270.113+170.262+269.966+171.007+269.966C171.718+269.966+172.337+270.105+172.866+270.382C173.395+270.659+173.828+271.032+174.166+271.5C174.504+271.968+174.755+272.501+174.92+273.099C175.085+273.697+175.167+274.308+175.167+274.932Z" opacity="1" fill="#887bec"/>
<path d="M183.175+268.328L183.175+264.298L180.965+264.298L180.965+268.328L178.677+268.328L178.677+270.278L180.965+270.278L180.965+278.832C180.965+279.456+181.026+279.959+181.147+280.34C181.268+280.721+181.455+281.016+181.706+281.224C181.957+281.432+182.287+281.575+182.694+281.653C183.101+281.731+183.591+281.77+184.163+281.77L185.853+281.77L185.853+279.82L184.839+279.82C184.492+279.82+184.211+279.807+183.994+279.781C183.777+279.755+183.608+279.699+183.487+279.612C183.366+279.525+183.283+279.404+183.24+279.248C183.197+279.092+183.175+278.884+183.175+278.624L183.175+270.278L185.853+270.278L185.853+268.328L183.175+268.328Z" opacity="1" fill="#887bec"/>
</g>
<path d="M54.1253+180.345L54.1253+44.7829L195.875+44.7829L195.875+180.345L54.1253+180.345Z" opacity="1" fill="#ffd600"/>
<path d="M146.806+146.255C149.531+150.487+152.492+154.543+158.764+154.543C164.032+154.543+166.796+152.039+166.796+148.574C166.796+144.428+163.938+142.956+158.142+140.542L154.964+139.247C145.794+135.527+139.695+130.865+139.695+121.018C139.695+111.943+146.959+105.036+158.311+105.036C166.395+105.036+172.203+107.714+176.392+114.725L166.493+120.777C164.316+117.056+161.961+115.591+158.311+115.591C154.586+115.591+152.228+117.839+152.228+120.777C152.228+124.407+154.59+125.875+160.044+128.123L163.221+129.419C174.03+133.821+180.125+138.317+180.125+148.424C180.125+159.314+171.132+165.282+159.059+165.282C147.251+165.282+140.545+159.615+136.812+152.6L146.806+146.255ZM101.186+146.564C103.178+149.975+106.206+152.6+110.561+152.6C114.727+152.6+117.125+151.026+117.125+144.907L117.125+105.033L130.249+105.033L130.249+146.835C130.249+159.514+122.559+165.282+111.329+165.282C101.182+165.282+93.8585+158.708+90.8738+152.6L101.186+146.564Z" opacity="1" fill="#000001"/>
</g>
</svg>
