<svg width="344" height="344" viewBox="0 0 344 344" fill="none" xmlns="http://www.w3.org/2000/svg">
<g filter="url(#filter0_d_2401_4)">
<rect x="16" y="12" width="312" height="312" rx="20" fill="white"/>
<g clip-path="url(#clip0_2401_4)">
<path d="M171.5 32C96.6588 32 36 92.6588 36 167.5C36 242.341 96.6588 303 171.5 303C246.341 303 307 242.341 307 167.5C307 92.6588 246.341 32 171.5 32ZM264.814 260.814C239.882 285.746 206.745 299.462 171.5 299.462C136.255 299.462 103.103 285.731 78.1857 260.814C53.2687 235.897 39.523 202.745 39.523 167.5C39.523 132.255 53.2537 99.1026 78.1706 74.1857C103.103 49.2537 136.255 35.523 171.5 35.523C206.745 35.523 239.897 49.2537 264.814 74.1706C289.746 99.1026 303.462 132.24 303.462 167.485C303.477 202.745 289.746 235.897 264.814 260.814Z" fill="black"/>
<path d="M171.5 40.2354C101.206 40.2354 44.2354 97.2056 44.2354 167.5C44.2354 237.794 101.206 294.765 171.5 294.765C241.794 294.765 298.765 237.779 298.765 167.5C298.765 97.2207 241.794 40.2354 171.5 40.2354ZM260.493 256.493C236.721 280.266 205.119 293.349 171.5 293.349C137.881 293.349 106.279 280.251 82.5066 256.493C58.7339 232.721 45.6506 201.119 45.6506 167.5C45.6506 133.881 58.749 102.279 82.5066 78.5066C106.279 54.7339 137.881 41.6506 171.5 41.6506C205.119 41.6506 236.721 54.7489 260.493 78.5066C284.266 102.279 297.349 133.881 297.349 167.5C297.349 201.119 284.266 232.721 260.493 256.493Z" fill="black"/>
<path d="M171.5 70.3465C117.932 70.3465 74.3465 113.932 74.3465 167.5C74.3465 221.068 117.932 264.653 171.5 264.653C225.068 264.653 268.653 221.068 268.653 167.5C268.653 113.932 225.068 70.3465 171.5 70.3465ZM171.5 263.238C118.625 263.238 75.7617 220.375 75.7617 167.5C75.7617 114.625 118.625 71.7617 171.5 71.7617C224.375 71.7617 267.238 114.625 267.238 167.5C267.238 220.375 224.375 263.238 171.5 263.238Z" fill="black"/>
<path d="M171.5 76.4591C121.305 76.4591 80.459 117.305 80.459 167.5C80.459 217.695 121.305 258.541 171.5 258.541C221.695 258.541 262.541 217.695 262.541 167.5C262.541 117.305 221.695 76.4591 171.5 76.4591ZM182.987 96.3625C183.861 98.2143 184.704 99.9608 184.704 102.084C184.704 102.43 184.689 102.746 184.643 103.062C184.628 103.183 184.598 103.273 184.568 103.378C184.538 103.559 184.508 103.74 184.448 103.905C184.282 104.432 184.026 104.869 183.71 105.23C183.71 105.23 183.71 105.245 183.695 105.245C183.033 105.968 182.054 106.344 180.789 106.344C179.75 106.344 178.907 106.134 178.26 105.697C178.35 105.531 178.41 105.351 178.486 105.155C178.546 105.004 178.591 104.854 178.621 104.703C178.636 104.628 178.666 104.553 178.681 104.477C178.712 104.342 178.742 104.206 178.772 104.056C178.787 103.935 178.817 103.8 178.832 103.664L178.877 103.333C178.892 103.062 178.922 102.791 178.922 102.505C178.817 100.729 178.109 99.1026 177.101 97.4917C177.914 94.2848 179.6 91.1232 181.331 88.8648C181.09 92.0566 182.009 94.3149 182.987 96.3625ZM185.321 98.4402C185.712 97.2508 185.998 96.0764 186.014 95.0376C188.016 97.2357 188.964 99.3435 188.964 101.632C188.964 101.993 188.934 102.324 188.904 102.641C188.889 102.731 188.889 102.821 188.874 102.912C188.844 103.183 188.799 103.424 188.739 103.664C188.708 103.785 188.678 103.89 188.648 103.996C188.603 104.161 188.543 104.327 188.483 104.462C188.437 104.583 188.377 104.703 188.317 104.824C188.272 104.899 188.227 104.974 188.182 105.065C188.046 105.29 187.88 105.486 187.715 105.667C187.685 105.697 187.655 105.742 187.624 105.772C186.992 106.374 186.149 106.706 185.11 106.706C184.914 106.706 184.734 106.676 184.553 106.645C184.914 106.254 185.201 105.787 185.441 105.26C185.592 104.929 185.712 104.553 185.818 104.176C185.848 104.041 185.893 103.92 185.923 103.785C185.953 103.634 185.968 103.484 185.998 103.333C186.044 102.972 186.089 102.611 186.089 102.219C186.059 100.849 185.743 99.5994 185.321 98.4402ZM220.4 217.469C223.412 217.469 226.347 216.325 228.29 214.368C229.584 213.073 230.367 211.522 230.578 209.836C230.909 209.987 231.24 210.182 231.572 210.438C231.602 210.469 231.647 210.469 231.677 210.453C231.709 210.437 231.735 210.41 231.752 210.378C232.385 208.436 231.933 206.554 230.262 204.266C228.621 202.007 225.309 200.622 221.424 200.562H221.153C216.591 200.562 214.288 202.564 213.159 204.251C211.593 206.584 211.608 209.324 212.285 210.89C212.301 210.935 212.331 210.95 212.376 210.965C212.421 210.965 212.451 210.95 212.481 210.92C212.827 210.499 213.324 210.047 213.866 209.716C216.381 211.854 220.31 212.185 223.336 211.718C224.887 211.477 226.031 210.89 226.573 210.032C226.95 209.445 227.025 208.752 226.814 208.03C226.362 206.464 223.713 205.907 221.996 206.208C220.385 206.479 219.015 207.096 216.697 209.46C216.621 209.535 216.531 209.565 216.471 209.535C216.411 209.52 216.396 209.445 216.396 209.4C216.29 207.954 216.35 206.193 216.381 205.32C217.163 204.13 219.437 202.865 221.816 202.865H221.876C223.863 202.881 225.474 203.272 226.302 203.934C226.889 204.401 227.672 205.997 228.169 207.292C228.922 209.264 228.771 210.484 227.582 212.14C226.498 213.645 223.683 215.286 220.054 215.286C216.591 215.286 214.122 214.534 211.804 212.787H211.789C210.328 211.086 210.178 209.445 211.021 203.091C212.075 195.247 211.864 185.762 211.232 179.033C210.614 172.408 209.335 165.091 208.356 160.755C207.98 159.039 207.663 157.684 207.618 157.277C207.648 155.35 208.431 153.544 209.816 152.189C211.412 150.653 213.656 149.855 216.23 149.9C220.641 149.975 223.291 151.406 224.059 154.146C224.164 154.507 224.209 156.163 224.27 158.075C224.42 162.863 224.676 170.857 226.001 180.373C228.049 195.097 230.473 200.517 232.084 204.1C233.032 206.223 233.664 207.623 233.815 209.957C233.965 212.23 233.258 214.202 231.707 215.813C228.877 218.779 223.246 220.42 216.245 220.3C214.529 220.27 212.918 220.194 211.352 220.104C211.503 219.261 211.638 218.403 211.759 217.515C211.789 217.289 211.834 216.912 211.653 216.777C211.472 216.626 211.096 216.732 210.885 216.822C208.702 217.665 206.73 218.584 204.908 219.562C201.31 219.156 198.028 218.644 194.821 218.132C188.197 217.093 181.949 216.099 173.472 216.099C161.217 216.099 150.633 217.515 141.991 218.99C139.085 216.732 135.788 215.467 132.325 214.759C133.138 213.645 133.695 212.32 133.966 210.785C134.298 208.888 134.012 206.133 133.62 202.308C133.003 196.241 132.837 189.255 133.936 179.228C134.96 169.834 135.999 163.977 136.616 161.101C136.737 160.544 136.872 160.108 136.993 159.716C141.554 159.189 145.86 158.542 150.016 157.925C156.926 156.871 163.445 155.892 169.091 155.892C179.705 155.892 187.745 157.036 194.851 158.045C199.112 158.647 202.831 159.174 206.534 159.385C206.625 159.867 206.76 160.424 206.956 161.071C208.13 165.076 209.154 172.649 209.696 179.183C210.253 185.823 210.313 195.247 209.244 202.926C208.145 210.845 208.552 211.959 210.584 214.157C212.993 216.762 216.892 217.379 219.663 217.454L220.4 217.469ZM239.641 135.085C245.167 139.707 248.178 145.639 248.103 151.436C248.057 155.32 246.718 158.421 245.137 160.65C244.399 161.282 243.691 161.929 243.044 162.622C243.992 157.217 244.203 148.967 243.059 144.826C243.041 144.767 243.002 144.718 242.949 144.687C242.896 144.656 242.833 144.647 242.773 144.661C242.653 144.691 242.577 144.811 242.592 144.932C243.195 148.244 243.39 154.236 241.132 164.067C240.379 161.342 239.235 158.783 237.955 156.524C237.157 152.113 238.015 148.063 238.798 144.33C239.476 141.288 239.943 137.916 239.641 135.085ZM246.296 182.059C246.221 181.968 246.085 181.953 245.98 182.014C242.126 184.633 237.323 190.369 234.387 194.871C235.757 192.086 236.721 188.743 236.691 185.085C236.691 184.874 236.675 184.678 236.66 184.468C237.127 183.76 237.669 183.083 238.286 182.465C239.521 181.231 241.96 179.785 244.519 178.25C247.576 176.428 250.963 174.426 253.327 172.197C252.695 176.789 250.752 186.169 245.152 191.815L244.534 191.995C241.433 192.884 238.497 193.727 236.149 194.856C240.229 188.909 242.592 186.018 246.266 182.36C246.356 182.285 246.371 182.149 246.296 182.059ZM248.705 174.124C247.139 175.178 245.453 176.187 243.842 177.136C243.541 177.316 243.24 177.497 242.954 177.663C242.622 177.798 242.291 177.949 241.945 178.069C243.827 173.402 245.844 169.502 248.63 165.151C248.69 165.046 248.675 164.91 248.569 164.835C248.464 164.76 248.328 164.775 248.253 164.865C246.13 167.289 243.676 170.436 240.921 177.196C240.906 177.151 240.906 177.09 240.891 177.045C242.171 173.507 242.291 169.969 241.719 166.627C243.27 163.495 246.055 161.433 249.202 159.039C250.737 157.864 252.393 156.028 253.733 154.658C254.411 162.411 254.14 169.262 248.705 174.124ZM237.428 181.472C237.413 181.487 237.383 181.517 237.353 181.532C237.172 181.712 237.007 181.908 236.826 182.104C236.962 176.729 236.359 167.756 234.447 162.667C234.427 162.611 234.387 162.564 234.334 162.536C234.281 162.508 234.219 162.501 234.161 162.517C234.103 162.531 234.054 162.567 234.023 162.618C233.992 162.669 233.982 162.73 233.996 162.788C234.929 168.012 235.26 172.212 235.32 177.949C234.297 175.269 232.701 172.679 230.548 170.21C230.006 165.588 230.518 161.192 231.075 156.871C231.391 154.402 231.707 152.053 231.797 149.78C236.63 155.486 245.603 169.352 237.428 181.472ZM235.366 185.1C235.411 190.219 233.393 194.69 231.09 197.732C230.759 196.708 230.412 195.564 230.081 194.269C230.548 188.789 230.593 182.872 229.855 180.222C229.825 180.101 229.705 180.026 229.599 180.056C229.479 180.071 229.389 180.177 229.404 180.297C229.494 184.362 229.404 187.539 229.163 190.369C228.561 187.584 227.973 184.257 227.401 180.192C227.16 178.415 226.935 176.699 226.754 175.058C227.281 172.995 227.702 171.008 227.672 169.096C232.52 173.296 235.305 179.364 235.366 185.1ZM206.188 223.597C206.143 223.559 206.086 223.54 206.027 223.543C205.968 223.546 205.913 223.57 205.872 223.612C202.187 227.404 198.694 231.379 195.408 235.521C196.492 233.067 197.32 230.146 197.742 226.668C200.813 223.085 205.149 220.179 210.69 218.041C209.455 226.277 206.278 232.6 201.084 237.207C199.293 237.087 197.486 237.117 195.664 237.418C197.38 235.115 199.232 232.811 201.054 230.553C202.981 228.174 204.788 225.916 206.233 223.928C206.293 223.808 206.278 223.672 206.188 223.597ZM189.446 232.51C189.326 232.465 189.205 232.525 189.145 232.645C187.278 237.042 184.388 241.077 180.368 244.946C179.675 233.293 186.044 229.363 192.773 224.877C194.083 224.003 195.423 223.1 196.733 222.137C196.537 230.477 194.098 242.416 181.662 246.06C185.562 241.092 187.956 237.945 189.597 232.811C189.612 232.751 189.606 232.688 189.578 232.632C189.55 232.577 189.503 232.533 189.446 232.51ZM180.639 217.786C184.222 218.042 187.489 218.463 190.711 218.945L191.373 224.274C187.489 226.744 183.635 229.348 181.271 233.564L180.639 217.786ZM211.081 221.519C212.722 221.625 214.423 221.7 216.23 221.73H216.486C214.514 223.341 212.27 224.967 209.636 226.698C210.223 225.072 210.69 223.341 211.081 221.519ZM218.247 221.7C220.686 221.625 222.915 221.354 224.917 220.857C224.225 221.836 223.472 222.784 222.659 223.672C219.076 224.139 215.808 225.012 212.858 226.247C214.89 224.771 216.727 223.221 218.247 221.7ZM168.971 217.59L170.943 217.545L171.229 238.999C171.229 239.134 171.334 239.225 171.47 239.225C171.605 239.225 171.711 239.119 171.711 238.999L171.997 217.53C172.494 217.53 172.99 217.515 173.487 217.515H173.954L173.472 232.691C173.472 232.826 173.563 232.931 173.698 232.931H173.713C173.834 232.931 173.939 232.841 173.954 232.706L174.857 217.515C175.49 217.53 176.137 217.53 176.754 217.545L175.158 243.019H167.902L166.306 217.665C166.908 217.635 167.51 217.605 168.112 217.59L168.971 233.187C168.971 233.308 169.076 233.413 169.212 233.413H169.227C169.362 233.413 169.452 233.293 169.452 233.172L168.971 217.59ZM168.76 244.163H174.255C176.258 244.163 176.604 244.374 176.905 244.554C177.387 244.84 177.522 245.111 177.522 245.834C177.522 246.557 177.387 246.828 176.905 247.114C176.634 247.279 176.258 247.505 174.436 247.505H168.594C166.773 247.505 166.396 247.279 166.11 247.114C165.628 246.828 165.493 246.557 165.493 245.834C165.493 245.111 165.628 244.84 166.095 244.554C166.411 244.374 166.757 244.163 168.76 244.163ZM153.313 231.953C154.638 233.97 158.356 240.414 160.886 245.563C160.826 245.533 160.78 245.518 160.72 245.488C158.356 243.079 155.948 241.498 153.554 240.489C147.697 234.392 147.306 226.518 147.336 222.122C148.751 223.431 150.317 224.621 151.837 225.78C157.724 230.252 163.792 234.271 162.632 245.518C162.226 244.705 161.684 243.787 160.946 242.507C160.54 241.814 160.073 241.016 159.531 240.053C158.101 237.554 155.421 232.886 153.659 231.622C153.614 231.591 153.56 231.576 153.506 231.579C153.452 231.581 153.4 231.602 153.358 231.637C153.253 231.727 153.253 231.862 153.313 231.953ZM136.195 232.374C138.483 234.904 141.72 237.072 145.559 238.698C144.084 238.577 142.623 238.547 141.208 238.517C139.642 238.487 138.107 238.442 136.646 238.291C132.416 236.183 129.149 233.022 126.785 228.761C134.313 227.813 141.073 228.4 147.547 232.886C148.284 235.13 149.323 237.147 150.603 238.969C144.385 237.237 139.673 234.286 136.496 232.043C136.39 231.968 136.27 231.983 136.18 232.073C136.119 232.149 136.119 232.284 136.195 232.374ZM103.178 201.691C104.623 202.73 106.415 204.491 108.176 206.75C107.845 207.984 107.679 209.204 107.755 210.77C107.8 211.492 107.89 212.215 108.056 212.938L106.851 212.893C104.744 211.778 102.937 210.032 101.145 207.503C100.227 206.193 99.3989 204.717 98.5408 203.167C97.261 200.878 95.8609 198.349 93.8585 195.94C94.8522 196.106 95.9362 196.256 97.0503 196.392C101.702 197.009 106.987 197.701 110.465 200.773C110.134 201.601 109.832 202.354 109.546 203.031C109.17 203.934 108.854 204.717 108.583 205.47C106.942 203.633 105.21 202.218 103.419 201.3C103.313 201.239 103.178 201.285 103.118 201.39C103.042 201.48 103.072 201.631 103.178 201.691ZM112.708 181.216C112.588 181.17 112.467 181.246 112.422 181.366C111.022 185.296 109.501 190.776 109.968 198.605C102.546 186.831 109.682 175.826 115.448 169.683C115.689 171.7 116.156 173.748 116.653 175.886C116.412 177.66 116.126 179.427 115.794 181.185C114.199 189.571 112.648 194.841 111.338 198.514C110.841 193.561 111.353 187.855 112.889 181.502C112.889 181.366 112.828 181.246 112.708 181.216ZM113.039 170.361C110.886 172.86 109.275 175.269 108.116 177.572C108.086 177.602 108.041 177.632 108.011 177.663C108.974 172.077 109.832 163.766 109.215 160.514C109.185 160.394 109.065 160.303 108.944 160.319C108.824 160.334 108.733 160.454 108.748 160.574C109.065 163.435 108.146 170.436 106.731 176.819C106.52 176.533 106.324 176.262 106.129 175.991C105.542 174.064 104.668 172.303 103.509 170.707C102.967 168.433 103.298 166.235 104.277 163.33C104.834 161.674 105.406 160.921 106.129 158.542C106.972 155.772 108.011 151.918 108.628 148.756C108.748 149.027 108.869 149.298 109.004 149.584C111.805 155.817 115.298 163.36 113.039 170.361ZM103.012 163.013C102.35 165.001 101.973 166.687 101.943 168.313C99.5645 162.818 98.3149 157.322 97.8633 150.367C97.8568 150.309 97.8309 150.255 97.7899 150.214C97.7489 150.173 97.6951 150.147 97.6374 150.141C97.517 150.156 97.4116 150.231 97.3965 150.352C96.6889 155.952 98.1343 162.396 99.8958 166.973C98.9774 166.25 97.9837 165.573 96.8997 164.941C90.215 155.154 95.1081 141.921 97.9385 136.23C98.5408 138.322 99.3839 141.665 100.227 143.878C102.139 148.831 104.172 154.025 104.141 160.273C103.735 161.252 103.374 161.929 103.012 163.013ZM105.722 184.573C103.118 179.62 98.0891 172.017 94.2499 168.825C94.205 168.787 94.1475 168.768 94.0889 168.771C94.0303 168.773 93.9749 168.798 93.9338 168.84C93.8434 168.93 93.8434 169.066 93.9187 169.156C97.6675 173.673 100.588 178.37 104.066 184.648C101.687 181.983 98.8569 180.162 96.3276 178.536C95.1382 177.768 93.9488 177.03 92.8648 176.262C90.2903 172.709 89.402 168.795 89.3719 163.179C101.206 166.807 106.415 173.643 105.722 184.573ZM95.6049 179.65C99.158 181.923 103.012 184.407 105.481 188.894C105.587 191.273 106.114 193.426 106.851 195.323C106.836 195.308 106.836 195.293 106.821 195.293C104.382 192.417 101.868 189.451 95.9512 184.543C95.9063 184.505 95.8488 184.486 95.7902 184.489C95.7316 184.491 95.6762 184.516 95.635 184.558C95.5447 184.648 95.5447 184.784 95.62 184.874C96.3728 185.793 97.6073 187.132 99.0376 188.683C101.356 191.197 104.187 194.284 106.189 196.903C104.367 196.271 102.44 195.88 100.558 195.564C98.345 194.525 96.1319 193.019 94.28 190.911C90.7721 186.907 88.7547 180.93 89.1762 174.426C90.757 176.187 93.3617 178.22 95.6049 179.65ZM110.856 203.573C112.407 199.824 114.741 194.148 117.164 181.441C119.077 171.414 119.031 163.465 119.001 158.723C118.986 156.419 118.986 154.597 119.212 153.965C120.642 150.141 125.084 148.831 128.546 149.539C134.584 150.773 136.059 155.2 136.195 156.946C136.285 157.97 136.044 159.009 135.562 161.071C134.9 163.947 133.801 169.804 132.657 179.168C131.422 189.255 131.482 196.256 132.054 202.339C132.386 205.877 132.642 208.662 132.325 210.348C132.009 212.004 131.317 213.359 130.263 214.398C128.592 214.157 126.905 214.022 125.204 213.946C124.933 213.916 124.632 214.007 124.512 214.232C124.376 214.488 124.497 214.82 124.752 215.136C125.023 215.482 125.264 215.858 125.505 216.265C124.918 216.34 124.301 216.385 123.653 216.4H123.488C120.416 216.4 117.059 214.865 115.448 212.697C114.304 211.146 114.168 210.077 114.861 207.954C115.222 206.84 116.096 205.41 116.788 204.762C117.616 203.995 119.302 203.543 121.305 203.543C124.241 203.543 126.665 204.702 127.493 205.816C127.417 207.081 127.327 208.135 127.146 209.46C127.146 209.505 127.116 209.58 127.071 209.595C127.011 209.61 126.92 209.58 126.845 209.52C125.219 208.06 122.208 207.111 120.356 207.111H120.266C118.76 207.141 117.466 207.578 116.803 208.285C116.614 208.482 116.468 208.717 116.374 208.973C116.281 209.23 116.242 209.503 116.261 209.776C116.336 211.161 117.18 212.787 120.793 212.787H121.019C124.451 212.727 127.523 211.778 128.817 210.408C129.344 210.679 129.917 211.056 130.489 211.507C130.519 211.538 130.564 211.537 130.594 211.522C130.626 211.505 130.652 211.479 130.669 211.447C131.256 209.836 131.166 207.232 129.63 205.079C128.501 203.483 126.198 201.601 121.636 201.601H121.35C117.917 201.661 114.635 203.016 112.588 205.214C109.817 208.195 110.721 213.66 112.347 215.181C112.377 215.211 112.407 215.226 112.452 215.211C112.482 215.211 112.527 215.181 112.542 215.151C112.708 214.79 112.934 214.383 113.25 214.022C115.237 216.762 118.595 218.267 122.901 218.267H123.232C124.361 218.252 125.415 218.117 126.394 217.906C126.619 218.328 126.83 218.779 127.086 219.261C127.432 219.954 127.809 220.691 128.215 221.459C126.153 221.79 124.421 222.016 123.081 222.031C116.472 222.167 109.576 218.689 109.17 210.694C109.034 207.999 109.682 206.419 110.856 203.573ZM126.469 215.331C133.665 215.783 141.208 217.409 146.161 225.78C146.312 227.617 146.598 229.363 147.005 230.989C146.463 230.658 145.936 230.357 145.394 230.086C139.221 222.558 135.788 220.3 132.672 219.366C132.616 219.352 132.556 219.357 132.504 219.382C132.452 219.407 132.41 219.449 132.386 219.502C132.34 219.607 132.386 219.743 132.491 219.803C134.795 221.143 138.754 223.913 142.352 228.746C139.402 227.677 136.451 227.225 133.545 227.15C131.151 224.35 129.6 221.293 128.275 218.674C127.628 217.424 127.056 216.295 126.469 215.331ZM151.627 224.274L152.289 218.885C155.466 218.493 158.808 218.147 162.346 217.906L161.729 233.504C159.456 229.664 155.902 227.21 152.575 224.922C152.259 224.711 151.943 224.5 151.627 224.274ZM164.273 137.961C164.243 137.329 164.589 136.802 165.312 136.802C165.944 136.802 166.306 137.163 166.321 137.916L166.818 154.718L165.116 154.808L164.273 137.961ZM170.296 138.262C170.265 137.058 170.747 136.711 171.53 136.711C172.358 136.711 172.765 137.268 172.689 138.307L172.494 154.703C171.831 154.688 171.154 154.673 170.476 154.673L170.296 138.262ZM176.197 154.838L176.709 137.916C176.724 137.148 177.116 136.711 177.748 136.711C178.456 136.711 178.757 137.329 178.727 137.961L177.884 154.929L176.197 154.838ZM178.817 154.989L179.811 137.434C179.886 135.944 179.464 135.055 177.808 135.055C176.348 135.055 175.685 135.778 175.64 137.404L175.249 154.808C174.662 154.778 174.059 154.763 173.442 154.748L173.743 137.329C173.758 136.636 173.578 135.959 173.141 135.522C172.735 135.116 172.132 135.01 171.485 135.01C170.838 135.01 170.175 135.161 169.769 135.567C169.347 136.004 169.212 136.651 169.227 137.329L169.528 154.688H169.106C168.654 154.688 168.203 154.703 167.751 154.718L167.36 137.389C167.315 135.763 166.757 135.1 165.312 135.1C164.74 135.1 164.047 135.266 163.701 135.642C163.295 136.079 163.159 136.696 163.204 137.419L164.183 154.868C163.581 154.914 162.979 154.959 162.361 155.019L160.961 132.797H182.039L180.639 155.124L178.817 154.989ZM181.813 131.111C181.045 131.216 179.63 131.231 177.372 131.231H165.628C163.37 131.231 161.955 131.216 161.187 131.111C159.982 130.93 159.666 130.719 159.41 130.283C159.109 129.56 158.974 129.033 158.959 128.642H184.041C184.026 129.033 183.891 129.545 183.62 130.222C183.334 130.719 183.017 130.93 181.813 131.111ZM158.658 127.136C157.634 127.136 157.423 126.428 157.423 125.841V125.585C157.423 125.013 157.845 124.215 158.658 124.215H184.463C185.185 124.215 185.562 124.682 185.562 125.585V125.841C185.562 126.564 185.02 127.136 184.342 127.136H158.658ZM157.001 116.838C157.799 116.687 158.597 116.642 159.2 116.733L159.41 117.621C159.606 118.916 159.35 119.548 158.522 119.955L158.07 120.135L157.001 116.838ZM183.394 115.167C183.108 115.167 182.867 115.363 182.822 115.649L182.46 117.47C182.31 118.78 182.385 120.241 184.041 121.054L185.321 121.566C185.456 121.626 185.562 121.671 185.517 122.017L185.17 122.996L157.875 123.041L157.513 122.017C157.468 121.671 157.574 121.626 157.709 121.566L159.019 121.039C160.78 120.18 160.765 118.584 160.585 117.41L160.193 115.754C160.162 115.629 160.091 115.517 159.99 115.435C159.89 115.354 159.765 115.307 159.636 115.302L156.098 115.167C154.999 115.137 154.864 114.911 154.773 114.595L154.502 113.435H188.588L188.302 114.58C188.212 114.941 188.151 115.137 187.173 115.167H183.394ZM185.998 116.823L184.914 120.135L184.508 119.97C183.68 119.563 183.454 118.976 183.605 117.651L183.8 116.627C184.372 116.552 185.155 116.627 185.998 116.823ZM187.218 111.749H155.782C150.964 111.749 150.768 111.644 150.272 111.358C149.94 111.162 149.745 110.876 149.745 110.018C149.745 109.401 149.94 108.979 150.332 108.723C150.829 108.407 152.123 108.286 158.341 108.286H184.674C190.907 108.286 192.186 108.407 192.683 108.723C193.075 108.979 193.27 109.401 193.27 110.018C193.27 110.876 193.06 111.162 192.743 111.358C192.231 111.644 192.051 111.749 187.218 111.749ZM157.98 100.096C157.754 100.819 157.619 101.587 157.619 102.445C157.619 102.776 157.649 103.077 157.694 103.378L157.739 103.664C157.784 103.89 157.845 104.101 157.905 104.312C157.95 104.477 158.01 104.628 158.07 104.794C158.296 105.336 158.582 105.817 158.944 106.239C158.522 106.555 157.965 106.736 157.288 106.736C156.808 106.737 156.334 106.629 155.902 106.42C155.677 106.314 155.451 106.164 155.24 105.953L155.195 105.908C155.103 105.828 155.022 105.737 154.954 105.637C154.924 105.607 154.909 105.576 154.879 105.546C154.8 105.433 154.725 105.318 154.653 105.2C154.638 105.17 154.623 105.155 154.608 105.125C154.532 104.974 154.457 104.809 154.382 104.628C154.367 104.583 154.352 104.553 154.337 104.508C154.291 104.357 154.246 104.206 154.201 104.041L154.156 103.83C154.126 103.679 154.096 103.499 154.081 103.333C154.066 103.258 154.066 103.183 154.051 103.107C154.02 102.851 154.005 102.58 154.005 102.294C154.005 99.7048 155.27 96.5432 157.107 94.4053C156.715 96.8142 157.453 98.9521 157.98 100.096ZM160.991 87.3743C162.813 88.368 164.364 90.0241 165.508 92.0717C165.252 92.8244 164.981 93.5471 164.695 94.2397C164.017 95.9108 163.325 97.6573 163.144 99.9758C163.114 100.428 163.114 100.849 163.129 101.271C163.129 101.346 163.129 101.406 163.144 101.481C163.174 101.888 163.219 102.294 163.295 102.671C163.295 102.686 163.31 102.716 163.31 102.731C163.49 103.529 163.776 104.267 164.183 104.899C164.379 105.2 164.589 105.486 164.83 105.742C164.845 105.757 164.876 105.772 164.891 105.802C164.318 106.028 163.656 106.149 162.903 106.149C160.75 106.149 159.501 104.538 159.23 102.761C159.185 102.505 159.169 102.249 159.169 101.993C159.169 100.412 159.546 99.6145 160.238 98.1692L160.314 98.0186C162.542 93.3815 162.753 89.9789 160.991 87.3743ZM177.281 102.46C177.281 102.791 177.266 103.077 177.236 103.363L177.191 103.664C177.161 103.83 177.131 103.996 177.101 104.146C177.071 104.252 177.04 104.372 177.01 104.462C176.965 104.598 176.92 104.718 176.875 104.824C176.83 104.914 176.8 105.019 176.754 105.095C176.182 106.149 175.143 106.645 173.548 106.645C172.102 106.645 171.109 106.088 170.521 104.989C170.431 104.809 170.341 104.628 170.28 104.417L170.235 104.282C170.175 104.101 170.13 103.92 170.085 103.71C170.055 103.589 170.04 103.469 170.025 103.348C169.994 103.183 169.964 103.032 169.949 102.851C169.919 102.535 169.904 102.189 169.904 101.828C169.904 100.036 170.521 98.0337 171.109 96.0764C171.485 94.8419 171.846 93.6525 172.012 92.6287C172.343 93.1105 172.75 93.6676 173.216 94.2848C174.933 96.5883 177.281 99.7048 177.281 102.46ZM176.092 96.0012C175.475 95.143 174.812 94.2848 174.105 93.3815C173.201 92.2373 172.283 91.0479 171.38 89.7531C171.319 89.6628 171.214 89.6327 171.109 89.6628C171.003 89.6929 170.943 89.7983 170.958 89.9037C171.154 92.1469 170.401 94.2547 169.663 96.3023C169.016 98.124 168.338 99.9909 168.338 101.963C168.338 102.325 168.368 102.656 168.399 102.987L168.444 103.348L168.534 103.89C168.609 104.282 168.715 104.643 168.85 104.989C168.986 105.336 169.136 105.667 169.317 105.968C168.353 105.787 167.601 105.426 166.998 104.959C166.02 104.176 165.478 103.092 165.222 101.918C165.222 101.903 165.207 101.873 165.207 101.858C165.162 101.632 165.116 101.406 165.086 101.18V101.165C165.056 100.954 165.041 100.744 165.026 100.533C165.026 100.488 165.026 100.427 165.011 100.382C164.996 100.172 164.996 99.9608 164.996 99.75C164.996 98.0939 165.583 96.4679 166.185 94.7516C166.908 92.7341 167.721 90.4607 167.721 87.7206C167.721 84.3331 166.246 81.9844 164.83 80.509C171.831 83.2039 175.46 88.6691 176.86 93.9235C176.574 94.5859 176.318 95.2785 176.092 96.0012ZM97.2761 121.129L146.508 104.944C146.628 104.899 146.688 104.779 146.658 104.658C146.644 104.6 146.608 104.551 146.557 104.52C146.506 104.489 146.445 104.479 146.387 104.493L103.148 112.848C105.798 109.536 108.688 106.42 111.805 103.514L148.028 98.8918C148.149 98.8768 148.239 98.7714 148.239 98.6509C148.239 98.5305 148.134 98.4251 148.013 98.4251L119.98 96.769C123.157 94.4504 126.499 92.3427 129.977 90.4607L150.467 93.2008H150.497C150.603 93.2008 150.693 93.1256 150.723 93.0202C150.753 92.8997 150.693 92.7943 150.588 92.7341L137.068 87.0281C140.184 85.6881 143.391 84.5439 146.673 83.5653L154.532 88.5035C154.578 88.5336 154.608 88.5336 154.653 88.5336C154.713 88.5336 154.773 88.5035 154.818 88.4583C154.894 88.368 154.909 88.2476 154.833 88.1572L150.633 82.4813C154.668 81.4876 158.823 80.7951 163.054 80.3735C165.026 82.1802 166.321 84.7246 166.321 87.0582C166.321 88.3529 166.17 89.452 165.96 90.4457C163.776 87.3743 160.78 85.4773 158.311 85.0708C158.264 85.0619 158.214 85.0688 158.171 85.0905C158.127 85.1123 158.092 85.1477 158.07 85.1913C158.025 85.2816 158.04 85.4021 158.116 85.4623C160.359 87.6002 161.172 89.6778 160.795 92.4029C160.524 94.4354 159.787 95.956 159.094 97.4164L158.778 98.0939C158.01 96.5281 157.664 94.7064 158.868 91.7254C158.914 91.6351 158.883 91.5297 158.808 91.4544C158.733 91.3942 158.612 91.3791 158.537 91.4393C155.029 93.5772 152.575 99.3887 152.575 103.273C152.575 105.125 152.997 106.359 153.9 107.097C150.844 107.172 150.242 107.338 149.715 107.684C148.977 108.151 148.585 108.949 148.585 109.973C148.585 110.771 148.706 111.764 149.715 112.336C150.332 112.683 150.693 112.833 153.192 112.878L153.659 114.851C153.96 115.89 154.743 116.191 155.631 116.266L157.032 120.572C156.64 120.813 156.219 121.279 156.384 122.228C156.384 122.258 156.399 122.288 156.414 122.318L156.941 123.794C156.941 123.809 156.956 123.809 156.956 123.824C156.535 124.306 156.309 124.938 156.309 125.555V125.811C156.309 126.97 156.881 127.814 157.814 128.13C157.694 128.928 157.995 129.846 158.387 130.78C158.748 131.397 159.185 131.743 159.787 131.969L161.232 155.124C159.591 155.305 157.905 155.516 156.173 155.757L157.272 140.806C157.288 140.686 157.197 140.581 157.077 140.551C156.956 140.535 156.836 140.611 156.806 140.716L152.681 156.253C151.747 156.389 150.814 156.54 149.88 156.675C148.134 156.946 146.342 157.202 144.535 157.473L153.659 130.825C153.68 130.771 153.679 130.711 153.657 130.657C153.634 130.604 153.592 130.561 153.539 130.539C153.433 130.493 153.298 130.524 153.238 130.629L137.595 157.398C137.595 157.307 137.61 157.217 137.595 157.127C137.459 155.501 136.405 151.917 132.536 149.795L150.889 122.469C150.964 122.363 150.934 122.228 150.844 122.153C150.797 122.118 150.741 122.101 150.683 122.104C150.625 122.107 150.57 122.129 150.528 122.168L125.852 148.274C122.539 148.53 119.182 150.276 117.887 153.754C117.646 154.387 117.586 155.441 117.586 157.021L114.379 160.409C113.641 157.533 112.452 154.733 111.293 152.143L146.914 117.41C147.005 117.32 147.005 117.184 146.929 117.094C146.854 117.004 146.719 116.989 146.613 117.049L103.118 147.837C102.546 146.166 101.928 144.57 101.326 143.005C100.844 141.755 100.378 140.551 99.956 139.361L144.927 111.644C145.032 111.584 145.062 111.448 145.017 111.343C144.989 111.292 144.942 111.253 144.887 111.233C144.831 111.214 144.771 111.215 144.716 111.237L90.7872 133.67C92.6089 129.289 94.7919 125.104 97.2761 121.129ZM86.2103 147.837L93.9639 143.05C92.7745 146.738 91.9013 151.12 92.2325 155.531L84.2079 161.207C84.5391 156.645 85.2166 152.173 86.2103 147.837ZM86.7974 189.586C85.8339 185.853 85.0962 182.029 84.6294 178.129L88.2127 174.636C87.8814 179.048 88.4686 182.947 89.8989 186.319L86.7974 189.586ZM101.236 219.668C98.4 215.853 95.8775 211.815 93.6929 207.593L96.8696 202.881C97.0503 203.197 97.2159 203.513 97.3965 203.814C98.2848 205.395 99.1129 206.9 100.076 208.27C101.326 210.047 102.606 211.462 103.991 212.576C103.283 212.456 102.591 212.335 101.898 212.155C101.657 212.095 101.281 212.095 101.115 212.275C100.95 212.456 101.025 212.802 101.115 213.028C101.597 214.247 102.259 215.422 103.027 216.566L101.236 219.668ZM102.44 213.495C104.337 213.871 106.385 214.097 108.402 214.217C109.546 217.786 112.226 220.947 116.577 222.483L115.689 222.573C114.53 222.694 113.34 222.799 112.166 222.904C107.92 220.631 104.247 217.153 102.44 213.495ZM111.263 224.049C112.618 223.943 113.973 223.808 115.283 223.672C116.803 223.522 118.324 223.371 119.829 223.266C120.733 223.386 121.681 223.477 122.69 223.477H123.096C123.939 223.461 124.933 223.371 126.047 223.236C127.191 223.326 128.321 223.461 129.45 223.687C130.142 224.832 130.925 226.006 131.844 227.165C130.383 227.195 128.938 227.316 127.508 227.481C125.611 227.12 123.653 226.924 121.019 226.774C120.898 226.774 120.793 226.849 120.778 226.969C120.763 227.09 120.838 227.21 120.958 227.225L121.214 227.286C122.735 227.617 124.06 227.918 125.279 228.204C125.279 228.294 125.294 228.385 125.34 228.475C126.394 230.523 127.643 232.344 129.073 233.955C122.871 233.609 116.668 231.004 111.263 224.049ZM129.344 244.193C125.174 241.89 121.214 239.27 117.496 236.349L118.851 232.389C121.922 234.121 125.671 235.25 130.368 235.265C130.714 235.611 131.076 235.943 131.452 236.259L129.344 244.193ZM146.041 250.501C140.38 249.237 135.713 245.187 132.446 238.743C135.126 239.676 138.092 239.752 141.193 239.812C147.065 239.947 153.719 240.098 159.922 246.512L159.952 246.602C155.345 247.099 148.043 246.391 142.503 244.012C142.398 243.967 142.277 244.012 142.217 244.103C142.157 244.208 142.172 244.329 142.262 244.404C146.056 247.701 152.379 248.514 157.679 248.514C158.191 248.514 158.688 248.499 159.185 248.484C156.384 250.155 151.416 251.706 146.041 250.501ZM165.899 252.835C165.011 253.151 161.925 254.19 160.374 254.611C158.552 255.093 157.679 254.867 157.423 254.175C157.137 253.377 157.378 252.835 158.763 252.293C159.576 251.977 165.041 249.824 166.321 249.312C165.975 250.035 165.779 250.832 165.779 251.645C165.794 252.067 165.839 252.458 165.899 252.835ZM171.5 256.027C168.67 256.027 166.968 254.25 166.968 251.284C166.968 250.411 167.209 249.553 167.646 248.815C169.121 248.559 173.472 248.514 175.324 248.8C175.761 249.553 176.017 250.411 176.017 251.299C176.032 254.295 174.376 256.027 171.5 256.027ZM185.562 254.175C185.306 254.867 184.448 255.093 182.611 254.611C181.06 254.205 177.989 253.151 177.086 252.835C177.146 252.458 177.176 252.067 177.176 251.645C177.176 250.832 176.98 250.05 176.634 249.312L184.192 252.293C185.607 252.835 185.863 253.377 185.562 254.175ZM184.779 248.123C189.747 245.428 195.664 243.907 202.394 243.636C202.514 243.636 202.62 243.531 202.62 243.41C202.62 243.29 202.529 243.184 202.409 243.169C197.682 242.612 192.201 243.365 186.872 245.217C189.13 243.907 191.358 242.025 193.225 239.36C197.546 237.824 201.942 238.457 206.218 239.104C208.175 239.405 210.659 239.481 212.647 239.571C207.136 245.819 196.673 254.069 184.779 248.123ZM217.54 241.92L216.426 238.231C221.439 236.846 225.414 234.136 228.515 230.974L229.343 233.157C225.67 236.394 221.725 239.33 217.54 241.92ZM206.248 237.809C205.179 237.659 204.08 237.493 202.966 237.373C207.949 234.091 216.049 230.718 223.246 228.987C223.366 228.957 223.442 228.836 223.427 228.716C223.412 228.595 223.291 228.52 223.171 228.52C217.6 229.168 211.171 231.275 205.676 234.166C206.519 233.022 207.287 231.787 207.965 230.492C213.896 226.096 222.252 223.868 232.129 224.335C225.926 234.015 217.088 238.683 206.248 237.809ZM230.382 223.296C228.365 223.251 226.438 223.326 224.571 223.492C225.263 222.649 225.896 221.79 226.483 220.902C232.099 218.689 236.269 215.949 238.874 212.697C238.949 212.606 238.949 212.456 238.859 212.381C238.838 212.359 238.814 212.342 238.786 212.331C238.759 212.319 238.73 212.313 238.7 212.313C238.671 212.313 238.642 212.319 238.614 212.331C238.587 212.342 238.563 212.359 238.542 212.381C237.323 213.495 235.576 214.744 233.454 215.964C234.778 214.217 235.381 212.185 235.23 209.866C235.23 209.821 235.215 209.791 235.215 209.746C236.45 209.52 237.684 209.324 238.919 209.159C240.816 208.888 242.969 208.301 244.821 207.834C242.427 214.594 238.061 221.595 230.382 223.296ZM243.586 217.123L242.622 215.542C243.977 213.314 245.212 210.619 246.251 207.367C246.326 207.126 246.266 206.87 246.1 206.705C246.017 206.617 245.91 206.555 245.793 206.526C245.676 206.497 245.553 206.501 245.438 206.539C244.113 206.946 242.728 207.217 241.298 207.457C243.706 206.027 245.769 204.205 247.485 202.233L250.09 206.012C248.197 209.87 246.023 213.583 243.586 217.123ZM236.525 208.195C236.028 208.27 235.546 208.361 235.049 208.451C234.824 207.111 234.447 206.012 233.935 204.823C237.488 202.835 241.689 199.884 243.661 197.656C243.752 197.566 243.737 197.415 243.646 197.325C243.602 197.282 243.543 197.257 243.481 197.257C243.419 197.257 243.359 197.282 243.315 197.325C241.117 199.463 237.97 201.42 233.348 203.528C232.866 202.459 232.324 201.224 231.722 199.614C232.866 198.349 234.282 197.28 236.224 196.286C238.527 195.097 241.523 194.073 244.79 193.14C247.109 192.477 249.909 191.559 252.183 190.716C251.023 196.663 245.393 205.124 236.525 208.195ZM256.534 188.262L251.882 183.444C253.191 180.117 254.08 176.503 254.592 172.89L258.551 176.624C258.13 180.583 257.452 184.468 256.534 188.262ZM258.657 159.656L254.757 157.036C254.682 156.028 254.592 154.959 254.456 153.845C254.426 153.604 254.381 153.197 254.14 153.137C253.899 153.062 253.718 153.152 253.553 153.348C253.026 153.95 252.454 154.537 251.867 155.109L249.292 153.363C249.367 152.761 249.412 152.128 249.412 151.481C249.443 148.56 248.78 144.751 246.191 140.731L256.534 146.814C257.558 150.969 258.265 155.26 258.657 159.656ZM196.583 106.254L246.477 122.348C248.63 125.932 250.542 129.665 252.183 133.55L198.284 111.975C198.163 111.93 198.043 111.975 197.983 112.096C197.922 112.201 197.968 112.336 198.073 112.397L238.512 136.184C238.663 138.669 238.121 141.303 237.534 144.059C237.443 144.45 237.368 144.841 237.278 145.233L197.034 118.118C196.929 118.058 196.793 118.073 196.718 118.163C196.643 118.253 196.658 118.404 196.748 118.479L230.608 150.322C230.518 152.354 230.232 154.492 229.946 156.72C229.795 157.879 229.645 159.054 229.509 160.258L225.504 156.118C225.474 155.004 225.459 154.387 225.399 154.055C224.887 151.345 222.418 149.358 218.458 148.816L192.969 122.409C192.928 122.367 192.873 122.342 192.814 122.339C192.755 122.336 192.698 122.356 192.653 122.394C192.563 122.469 192.533 122.604 192.608 122.71L211.247 149.734C210.373 150.156 209.591 150.683 208.913 151.345C207.528 152.7 206.655 154.432 206.384 156.359L190.365 130.177C190.304 130.072 190.169 130.042 190.063 130.087C189.958 130.147 189.898 130.268 189.943 130.388L200.361 157.548C198.66 157.337 196.914 157.097 195.047 156.826C193.948 156.675 192.819 156.509 191.659 156.359L186.51 139.361C186.496 139.303 186.46 139.254 186.409 139.223C186.358 139.192 186.297 139.182 186.239 139.196C186.119 139.226 186.044 139.331 186.044 139.452L187.579 155.832C185.743 155.606 183.83 155.395 181.813 155.23L183.273 132.014C183.876 131.788 184.327 131.427 184.704 130.764C185.05 129.921 185.366 128.973 185.231 128.16C186.119 127.798 186.751 126.91 186.751 125.871V125.615C186.751 124.833 186.54 124.2 186.149 123.764L186.646 122.394C186.661 122.363 186.661 122.333 186.676 122.303C186.842 121.355 186.42 120.888 186.029 120.647L187.429 116.356C188.422 116.296 189.145 115.995 189.446 114.896L189.928 112.939C192.382 112.893 192.743 112.758 193.346 112.397C194.339 111.825 194.475 110.831 194.475 110.033C194.475 109.009 194.083 108.211 193.346 107.745C192.804 107.398 192.201 107.218 188.979 107.157C189.973 106.299 190.41 104.809 190.41 102.565C190.41 98.9822 188.528 95.2183 185.487 92.7492C185.411 92.6889 185.306 92.6739 185.231 92.7191C185.14 92.7642 185.095 92.8546 185.11 92.9449C185.231 94.1192 184.96 95.3387 184.538 96.5432C184.433 96.3324 184.342 96.1216 184.237 95.8958C182.972 93.2309 181.678 90.4758 182.746 86.3054C182.762 86.2571 182.76 86.205 182.74 86.1582C182.721 86.1114 182.686 86.0729 182.641 86.0494C182.6 86.0209 182.55 86.0083 182.5 86.0138C182.45 86.0194 182.404 86.0427 182.37 86.0796C180.849 87.4346 179.299 89.3466 178.034 91.6049C176.107 86.8173 172.283 82.4813 166.321 80.1477C168.037 80.0423 169.769 79.9971 171.515 79.9971C174.059 79.9971 176.589 80.1176 179.088 80.3283L177.808 84.5589C177.778 84.6643 177.823 84.7848 177.929 84.8299C177.959 84.845 178.004 84.8601 178.034 84.8601C178.109 84.8601 178.17 84.8299 178.215 84.7697L181.693 80.5843C183.8 80.8252 185.878 81.1413 187.941 81.5328L184.779 86.0344C184.719 86.1247 184.719 86.2602 184.809 86.3355C184.854 86.3807 184.914 86.3957 184.975 86.3957C185.02 86.3957 185.065 86.3807 185.11 86.3506L190.861 82.1199C193.014 82.6017 195.122 83.1738 197.215 83.8062L190.184 89.7682C190.094 89.8434 190.079 89.9789 190.139 90.0693C190.184 90.1446 190.259 90.1747 190.334 90.1747C190.365 90.1747 190.395 90.1747 190.425 90.1596L201.671 85.2967C204.426 86.3054 207.121 87.4496 209.741 88.7293L193.12 95.3688C192.999 95.414 192.954 95.5344 192.984 95.6549C193.014 95.7603 193.105 95.8205 193.21 95.8205H193.255L215.071 91.5598H215.086C218.549 93.5471 221.861 95.7753 225.007 98.2143L196.191 100.081C196.071 100.096 195.965 100.187 195.965 100.322C195.965 100.443 196.056 100.548 196.191 100.563L230.563 102.897C233.935 105.983 237.067 109.325 239.927 112.909L196.733 105.817C196.674 105.81 196.614 105.824 196.564 105.857C196.514 105.89 196.478 105.94 196.462 105.998C196.402 106.103 196.462 106.224 196.583 106.254Z" fill="black"/>
<path d="M161.368 172.393L164.198 172.243C164.605 172.227 164.8 172.423 164.815 172.83C164.815 173.101 164.83 173.236 164.83 173.507C164.845 173.914 164.635 174.139 164.228 174.155L159.877 174.38C159.471 174.395 159.26 174.2 159.26 173.793V166.326C159.26 165.919 159.456 165.693 159.847 165.678C160.193 165.663 160.359 165.648 160.69 165.633C161.082 165.618 161.277 165.814 161.277 166.22C161.337 168.689 161.353 169.924 161.368 172.393ZM170.446 174.109H169.648C169.181 174.109 168.986 173.974 168.82 173.522C167.676 170.481 167.134 168.96 166.05 165.934C165.929 165.618 166.125 165.347 166.441 165.347H167.42C167.872 165.347 168.052 165.483 168.203 165.934C168.956 168.087 169.332 169.171 170.115 171.324C170.883 169.156 171.259 168.072 171.982 165.904C172.132 165.452 172.313 165.317 172.765 165.317H173.623C173.924 165.317 174.12 165.588 174.014 165.904C172.96 168.96 172.403 170.481 171.274 173.537C171.093 173.959 170.898 174.094 170.446 174.109ZM177.342 174.124C176.89 174.109 176.664 174.094 176.227 174.064C175.956 174.049 175.806 173.763 175.956 173.522C176.995 171.956 177.522 171.189 178.531 169.623C177.643 168.117 177.206 167.365 176.348 165.859C176.212 165.618 176.363 165.332 176.634 165.347C177.101 165.377 177.342 165.377 177.808 165.407C178.29 165.437 178.456 165.543 178.697 165.994L179.946 168.223C180.458 167.38 180.714 166.958 181.211 166.115C181.452 165.693 181.617 165.603 182.099 165.618C182.536 165.633 182.762 165.648 183.198 165.678C183.454 165.693 183.62 165.979 183.469 166.22C182.581 167.636 182.129 168.343 181.226 169.758C182.22 171.414 182.731 172.243 183.755 173.899C183.906 174.14 183.74 174.426 183.484 174.41C183.002 174.38 182.746 174.38 182.265 174.35C181.768 174.32 181.587 174.215 181.331 173.763C180.729 172.709 180.428 172.182 179.826 171.143C179.208 172.137 178.907 172.634 178.29 173.628C178.019 174.064 177.853 174.155 177.342 174.124ZM145.213 191.529C144.882 191.574 144.701 191.589 144.37 191.634C143.888 191.694 143.677 191.589 143.482 191.167C142.172 188.307 141.539 186.877 140.305 184.016C140.169 183.73 140.365 183.429 140.696 183.384C141.103 183.323 141.314 183.293 141.72 183.248C142.187 183.188 142.398 183.293 142.563 183.715C143.421 185.747 143.858 186.771 144.746 188.804C145.469 186.545 145.83 185.431 146.538 183.173C146.688 182.706 146.869 182.54 147.336 182.48C147.697 182.435 147.878 182.405 148.239 182.36C148.555 182.315 148.766 182.556 148.661 182.887C147.637 186.064 147.11 187.659 146.041 190.836C145.906 191.303 145.71 191.453 145.213 191.529ZM152.605 190.61C152.184 190.64 151.973 190.445 151.958 190.038L151.883 182.586C151.883 182.179 152.093 181.953 152.5 181.908C154.472 181.743 155.451 181.667 157.408 181.502C157.814 181.472 158.025 181.667 158.04 182.074C158.055 182.33 158.055 182.45 158.055 182.691C158.07 183.098 157.86 183.323 157.453 183.369C156.083 183.489 155.406 183.534 154.036 183.655C154.051 184.257 154.051 184.558 154.066 185.16C155.014 185.085 155.496 185.04 156.444 184.964C156.851 184.934 157.077 185.13 157.077 185.537C157.077 185.747 157.092 185.868 157.092 186.079C157.107 186.485 156.896 186.711 156.49 186.756C155.541 186.831 155.059 186.876 154.096 186.952C154.111 187.629 154.111 187.96 154.126 188.623C155.526 188.502 156.219 188.457 157.619 188.337C158.04 188.307 158.251 188.503 158.266 188.909C158.281 189.165 158.281 189.285 158.281 189.526C158.296 189.933 158.085 190.159 157.664 190.204C155.662 190.369 154.638 190.445 152.605 190.61ZM163.159 189.918C162.798 189.933 162.617 189.933 162.241 189.948C161.819 189.963 161.608 189.752 161.608 189.346C161.624 186.35 161.624 184.859 161.639 181.863C161.639 181.457 161.849 181.231 162.256 181.216C163.385 181.186 163.957 181.155 165.101 181.125C166.953 181.065 168.143 182.119 168.173 183.745C168.188 184.784 167.676 185.612 166.757 186.064C167.45 187.313 167.796 187.945 168.504 189.195C168.654 189.451 168.474 189.737 168.173 189.752C167.721 189.767 167.51 189.767 167.059 189.782C166.547 189.797 166.381 189.692 166.14 189.255C165.568 188.186 165.297 187.644 164.74 186.575C164.349 186.59 164.153 186.59 163.761 186.606C163.761 187.674 163.776 188.201 163.776 189.27C163.792 189.692 163.581 189.903 163.159 189.918ZM165.071 182.887C164.544 182.902 164.288 182.917 163.761 182.932C163.761 183.715 163.761 184.106 163.776 184.904C164.303 184.889 164.559 184.874 165.086 184.859C165.628 184.844 166.02 184.422 166.02 183.85C166.02 183.263 165.613 182.872 165.071 182.887ZM172.253 189.767C171.831 189.767 171.62 189.556 171.62 189.135C171.635 186.139 171.635 184.648 171.651 181.652C171.651 181.246 171.861 181.035 172.268 181.035H173.156C173.563 181.035 173.773 181.246 173.773 181.667C173.788 184.663 173.788 186.154 173.803 189.15C173.803 189.556 173.593 189.767 173.171 189.767H172.253ZM179.811 189.948C179.389 189.933 179.178 189.707 179.193 189.3C179.239 186.831 179.254 185.597 179.284 183.143C178.501 183.113 178.109 183.083 177.342 183.052C176.935 183.037 176.724 182.812 176.739 182.405C176.739 182.134 176.754 181.998 176.754 181.727C176.769 181.321 176.98 181.11 177.372 181.14C179.765 181.246 180.955 181.306 183.364 181.426C183.77 181.441 183.981 181.667 183.981 182.074V182.751C183.981 183.158 183.77 183.369 183.364 183.338C182.581 183.308 182.189 183.278 181.422 183.248C181.407 185.717 181.407 186.952 181.376 189.406C181.376 189.812 181.151 190.023 180.744 189.993C180.368 189.963 180.187 189.963 179.811 189.948ZM186.36 190.309C185.983 190.279 185.803 190.264 185.441 190.219C185.11 190.189 184.914 189.903 185.065 189.602C186.39 186.681 187.022 185.205 188.272 182.285C188.453 181.848 188.648 181.743 189.115 181.773L189.988 181.848C190.455 181.893 190.651 182.044 190.816 182.51C191.945 185.657 192.518 187.223 193.692 190.369C193.812 190.686 193.617 190.942 193.285 190.911C192.864 190.866 192.653 190.851 192.231 190.821C191.75 190.776 191.539 190.625 191.388 190.159C191.238 189.707 191.163 189.481 190.997 189.029L187.685 188.728C187.504 189.15 187.429 189.361 187.248 189.782C187.037 190.234 186.842 190.339 186.36 190.309ZM190.38 187.298C189.988 186.139 189.792 185.552 189.416 184.392C188.979 185.476 188.769 186.018 188.332 187.102C189.145 187.178 189.567 187.223 190.38 187.298ZM149.609 206.584C149.263 206.614 149.082 206.629 148.736 206.675C148.239 206.72 148.028 206.614 147.818 206.178C146.478 203.272 145.83 201.827 144.566 198.921C144.43 198.62 144.626 198.334 144.972 198.304C145.394 198.259 145.604 198.243 146.026 198.198C146.508 198.153 146.719 198.259 146.899 198.695C147.772 200.758 148.224 201.797 149.142 203.859C149.895 201.631 150.272 200.502 150.994 198.274C151.145 197.807 151.341 197.656 151.822 197.611C152.199 197.566 152.379 197.551 152.756 197.521C153.087 197.491 153.298 197.732 153.192 198.063C152.123 201.209 151.581 202.79 150.467 205.937C150.317 206.373 150.106 206.539 149.609 206.584ZM157.257 205.907C156.821 205.937 156.595 205.741 156.595 205.32C156.535 202.339 156.52 200.833 156.475 197.852C156.475 197.446 156.685 197.22 157.092 197.19C157.468 197.159 157.649 197.159 158.025 197.129C158.447 197.099 158.658 197.295 158.673 197.717C158.748 200.698 158.778 202.203 158.853 205.184C158.868 205.591 158.643 205.816 158.221 205.847C157.83 205.877 157.649 205.892 157.257 205.907ZM164.198 205.576C163.822 205.591 163.641 205.591 163.265 205.606C162.828 205.621 162.617 205.41 162.617 205.003C162.632 202.007 162.632 200.517 162.647 197.521C162.647 197.114 162.873 196.888 163.28 196.888L166.215 196.813C168.128 196.768 169.362 197.837 169.392 199.448C169.407 200.487 168.88 201.3 167.932 201.751C168.639 203.016 169.001 203.633 169.723 204.898C169.874 205.154 169.693 205.455 169.377 205.455C168.91 205.47 168.685 205.47 168.233 205.485C167.706 205.5 167.525 205.395 167.284 204.943C166.697 203.859 166.411 203.332 165.839 202.248C165.433 202.263 165.237 202.263 164.83 202.278C164.83 203.347 164.83 203.874 164.845 204.943C164.845 205.35 164.62 205.576 164.198 205.576ZM166.17 198.56C165.628 198.575 165.357 198.575 164.815 198.59C164.815 199.373 164.815 199.764 164.83 200.562C165.372 200.547 165.643 200.547 166.185 200.532C166.742 200.517 167.149 200.11 167.149 199.538C167.134 198.936 166.727 198.545 166.17 198.56ZM174.782 205.5C174.345 205.5 174.135 205.274 174.135 204.868C174.15 202.399 174.165 201.164 174.18 198.695C173.382 198.68 172.975 198.68 172.162 198.665C171.741 198.665 171.53 198.439 171.53 198.033C171.53 197.762 171.53 197.626 171.545 197.34C171.545 196.934 171.771 196.723 172.193 196.723C174.662 196.768 175.896 196.783 178.38 196.828C178.802 196.828 179.013 197.054 179.028 197.461V198.153C179.028 198.56 178.817 198.77 178.395 198.77C177.597 198.755 177.191 198.755 176.378 198.74V204.913C176.378 205.32 176.152 205.53 175.731 205.53C175.354 205.515 175.174 205.515 174.782 205.5ZM185.743 205.997C185.396 205.982 185.231 205.967 184.884 205.937C184.388 205.907 184.177 205.756 184.011 205.289C182.852 202.173 182.295 200.622 181.196 197.506C181.075 197.19 181.286 196.919 181.617 196.949L182.671 197.024C183.153 197.054 183.349 197.205 183.514 197.656C184.282 199.869 184.674 200.968 185.472 203.182C186.345 201.074 186.766 200.02 187.609 197.912C187.775 197.476 187.986 197.355 188.468 197.385C188.844 197.415 189.025 197.415 189.401 197.446C189.732 197.461 189.928 197.747 189.808 198.063C188.603 201.029 187.971 202.504 186.676 205.47C186.45 205.907 186.239 206.027 185.743 205.997ZM199.022 190.098C199.564 190.159 199.94 189.933 199.955 189.541C199.97 189.24 199.789 189.014 199.443 188.758C199.097 188.503 198.118 187.81 197.772 187.554C196.869 186.907 196.417 186.079 196.462 185.16C196.537 183.715 197.787 182.706 199.443 182.872C200.241 182.947 201.039 183.278 201.641 183.835C201.897 184.076 201.882 184.407 201.626 184.678C201.551 184.769 201.325 185.025 201.25 185.115C200.979 185.431 200.693 185.401 200.377 185.145C200.015 184.859 199.669 184.693 199.353 184.663C198.856 184.618 198.555 184.874 198.54 185.22C198.525 185.537 198.66 185.747 199.052 186.018C199.383 186.274 200.377 186.967 200.723 187.223C201.641 187.885 202.093 188.713 202.048 189.602C201.972 191.197 200.648 192.071 198.931 191.905C197.742 191.785 196.838 191.273 196.206 190.625C195.89 190.309 195.905 190.008 196.191 189.707C196.281 189.632 196.537 189.361 196.628 189.285C196.914 188.999 197.185 189.029 197.501 189.315C198.088 189.812 198.555 190.053 199.022 190.098ZM194.58 205.064C195.122 205.109 195.483 204.883 195.514 204.507C195.529 204.205 195.348 203.98 195.002 203.724C194.655 203.483 193.707 202.775 193.361 202.534C192.472 201.887 192.036 201.074 192.081 200.14C192.171 198.695 193.406 197.671 195.047 197.822C195.83 197.897 196.628 198.213 197.215 198.77C197.456 199.011 197.441 199.343 197.2 199.614C197.125 199.704 196.899 199.96 196.823 200.05C196.567 200.366 196.281 200.351 195.95 200.095C195.589 199.809 195.258 199.659 194.941 199.629C194.445 199.583 194.144 199.839 194.128 200.186C194.113 200.502 194.249 200.713 194.625 200.984C194.972 201.224 195.92 201.932 196.266 202.173C197.17 202.835 197.606 203.648 197.561 204.537C197.486 206.133 196.161 207.021 194.475 206.87C193.3 206.765 192.397 206.253 191.78 205.621C191.479 205.305 191.479 205.003 191.78 204.702L192.216 204.266C192.502 203.98 192.773 204.01 193.075 204.281C193.647 204.793 194.113 205.018 194.58 205.064ZM57.0476 180.117C57.0476 180.568 56.8218 180.809 56.3551 180.809H55.3464C54.8947 180.809 54.6538 180.568 54.6538 180.117V173.582L53.6752 173.823C53.2687 173.929 53.0128 173.748 53.0128 173.296V172.559C53.0128 172.032 53.1633 171.821 53.6601 171.67L54.4882 171.414C54.9098 171.279 55.2109 171.189 55.6776 171.189H56.34C56.7917 171.189 57.0326 171.43 57.0326 171.881V180.117H57.0476ZM63.9581 181.005C61.5493 181.005 60.1943 179.665 60.1943 178.144C60.1943 177.166 60.7363 176.353 61.7149 175.856C60.8416 175.389 60.3599 174.621 60.3599 173.703C60.3599 172.258 61.6848 170.993 63.9581 170.993C66.2315 170.993 67.5414 172.273 67.5414 173.703C67.5414 174.621 67.0596 175.389 66.2014 175.856C67.1951 176.353 67.722 177.181 67.722 178.144C67.707 179.665 66.352 181.005 63.9581 181.005ZM63.9581 176.834C63.0096 176.834 62.4827 177.376 62.4827 177.979C62.4827 178.581 63.0096 179.123 63.9581 179.123C64.9066 179.123 65.4336 178.581 65.4336 177.979C65.4185 177.392 64.8916 176.834 63.9581 176.834ZM62.6483 173.929C62.6483 174.471 63.0849 174.968 63.9581 174.968C64.8163 174.968 65.268 174.456 65.268 173.929C65.268 173.372 64.8163 172.89 63.9581 172.89C63.0849 172.89 62.6483 173.372 62.6483 173.929ZM276.076 180.824L275.699 180.117C275.489 179.725 275.624 179.409 276.001 179.213C277.325 178.566 278.244 177.903 278.726 177.015C278.274 177.361 277.702 177.557 277.1 177.557C275.173 177.557 273.938 176.262 273.938 174.395C273.938 172.498 275.368 171.008 277.807 171.008C279.945 171.008 281.511 172.453 281.511 174.742C281.511 177.888 279.749 179.951 277.009 181.185C276.573 181.351 276.287 181.231 276.076 180.824ZM276.241 174.38C276.241 175.163 276.799 175.75 277.702 175.75C278.56 175.75 279.162 175.148 279.162 174.35C279.162 173.552 278.575 172.98 277.702 172.98C276.814 172.98 276.241 173.567 276.241 174.38ZM287.503 181.005C285.094 181.005 283.739 179.665 283.739 178.144C283.739 177.166 284.281 176.353 285.26 175.856C284.387 175.389 283.905 174.621 283.905 173.703C283.905 172.258 285.23 170.993 287.503 170.993C289.761 170.993 291.086 172.273 291.086 173.703C291.086 174.621 290.604 175.389 289.746 175.856C290.74 176.353 291.267 177.181 291.267 178.144C291.267 179.665 289.912 181.005 287.503 181.005ZM287.503 176.834C286.555 176.834 286.028 177.376 286.028 177.979C286.028 178.581 286.555 179.123 287.503 179.123C288.452 179.123 288.978 178.581 288.978 177.979C288.978 177.392 288.452 176.834 287.503 176.834ZM286.208 173.929C286.208 174.471 286.645 174.968 287.518 174.968C288.376 174.968 288.828 174.456 288.828 173.929C288.828 173.372 288.376 172.89 287.518 172.89C286.645 172.89 286.208 173.372 286.208 173.929ZM169.754 115.061L163.641 115.182C163.475 115.182 163.325 115.257 163.219 115.378C163.114 115.498 163.054 115.649 163.069 115.814C163.069 115.89 163.189 117.666 163.475 118.81C163.882 120.346 165.056 121.204 166.818 121.204C168.594 121.204 169.769 120.271 170.009 118.66C170.19 117.516 170.341 115.799 170.341 115.724C170.347 115.642 170.337 115.56 170.311 115.483C170.285 115.405 170.244 115.334 170.19 115.272C170.139 115.205 170.073 115.151 169.997 115.114C169.921 115.078 169.838 115.06 169.754 115.061ZM168.85 118.449C168.7 119.473 168.007 120 166.818 120C165.598 120 164.876 119.503 164.62 118.494C164.499 118.042 164.409 117.455 164.349 116.928C165.402 116.371 167.766 116.176 169.061 116.733C169.001 117.29 168.925 117.937 168.85 118.449ZM179.359 115.092L173.186 115.077C173.036 115.092 172.855 115.152 172.75 115.272C172.693 115.332 172.65 115.403 172.624 115.481C172.598 115.559 172.589 115.642 172.599 115.724L172.644 116.206C172.75 117.455 172.765 117.5 172.945 118.675C173.186 120.286 174.345 121.204 176.092 121.204H176.182C177.944 121.174 179.133 120.301 179.54 118.75C179.841 117.591 179.946 115.799 179.961 115.724C179.97 115.643 179.959 115.562 179.93 115.486C179.902 115.41 179.855 115.342 179.796 115.287C179.742 115.225 179.675 115.175 179.599 115.141C179.524 115.107 179.442 115.09 179.359 115.092ZM178.38 118.449C178.109 119.488 177.387 120 176.152 120.015C174.978 120.045 174.27 119.518 174.105 118.494C173.969 117.606 173.939 117.395 173.879 116.763C175.189 116.161 177.582 116.311 178.651 116.868C178.591 117.395 178.501 117.982 178.38 118.449ZM105.165 247.084L105.692 246.451C104.427 245.382 103.042 244.208 101.808 243.019L101.236 243.621C101.808 244.615 101.717 245.804 99.7301 247.882L96.0716 251.736C93.723 254.22 90.5914 254.672 87.9868 252.067C85.593 249.673 85.9995 246.843 88.6191 244.313L93.181 239.917C95.0178 238.156 95.4243 238.201 96.4781 238.954L97.0804 238.382C95.4995 236.771 93.9036 234.904 92.4734 233.202L91.826 233.744C92.4734 234.859 92.4433 235.295 90.5764 237.027L85.7435 241.483C82.7625 244.223 81.7538 248.695 85.879 252.82C90.0494 256.99 94.4758 255.966 97.261 252.985L101.025 248.966C102.982 246.903 104.096 246.617 105.165 247.084ZM123.382 259.324L123.774 258.586C122.238 257.758 120.733 256.93 119.242 256.027L118.806 256.749C119.573 257.607 119.739 258.737 118.264 261.206L115.057 266.581L112 252.458C111.744 251.284 111.549 251.028 111.248 250.802C110.48 250.26 108.839 249.026 107.679 248.122L107.183 248.755C107.664 249.237 107.74 249.809 107.981 251.645C108.071 252.157 108.101 252.669 107.679 253.302L102.771 260.333C101.1 262.696 100.137 263.027 98.9924 262.651L98.4805 263.298C99.8958 264.367 101.326 265.436 102.786 266.43L103.268 265.768C102.546 264.849 102.455 263.931 104.202 261.386L108.523 255.048L112.271 272.452L113.265 272.979L119.739 262.034C121.214 259.55 122.238 259.098 123.382 259.324ZM127.282 261.236C128.381 262.019 128.471 262.395 127.447 264.714L123.503 273.612C122.479 275.93 122.178 276.141 120.853 275.885L120.522 276.638C122.675 277.646 124.858 278.58 127.086 279.468L127.417 278.715C126.318 277.932 126.273 277.586 127.252 275.238L131.016 266.264C131.994 263.916 132.34 263.735 133.665 263.991L133.966 263.223C131.821 262.375 129.702 261.462 127.613 260.483L127.282 261.236ZM149.76 268.839C151.055 269.486 151.401 270.375 150.242 271.76L143.467 279.905L141.419 269.291C141.178 267.996 141.585 267.123 142.789 267.123L143.015 266.325C140.847 265.692 138.468 264.909 136.029 264.036L135.728 264.804C136.571 265.482 136.752 266.204 137.249 268.508L140.636 284.421L141.735 284.707L151.958 272.512C153.463 270.736 154.442 270.043 155.451 269.923L155.571 269.095C153.719 268.809 151.852 268.447 149.94 268.056L149.76 268.839ZM170.476 285.43C169.467 286.047 167.691 286.318 164.589 286.138C162.316 286.002 162.181 285.942 162 285.746C161.849 285.566 161.774 285.31 161.804 284.798C161.91 283.112 162.105 280.673 162.301 278.444C165.613 278.67 166.517 278.836 167.028 279.077C167.857 279.483 168.037 279.935 168.188 280.612L169.061 280.642L169.212 275.509L168.338 275.478C168.128 276.126 167.887 276.623 167.104 276.864C166.14 277.135 165.056 277.119 162.467 276.848C162.617 275.027 162.783 273.491 162.858 272.979C162.933 272.482 163.024 272.091 163.234 271.895C163.46 271.699 163.716 271.639 165.734 271.76C169.332 271.97 170.341 272.317 172.388 273.973L173.006 273.536L171.816 270.284C169.859 270.284 167.555 270.239 165.207 270.089C162.406 269.923 159.817 269.667 157.709 269.381L157.589 270.224C158.838 270.6 159.079 270.977 158.853 273.506L157.935 283.157C157.709 285.686 157.393 285.972 156.083 286.138L156.008 286.951C158.176 287.222 161.789 287.553 164.138 287.704C166.622 287.854 170.838 287.975 172.554 287.929L173.698 283.398L172.945 283.097C172.162 284.045 171.44 284.843 170.476 285.43ZM196.176 284.12C194.339 284.406 192.653 281.832 189.808 278.821C192.804 277.767 194.294 275.764 193.963 273.341C193.556 270.239 190.982 268.447 185.622 269.291C182.536 269.787 179.103 270.013 177.071 270.134L177.116 270.977C178.41 271.112 178.712 271.428 178.983 273.958L179.901 283.639C180.157 286.168 179.901 286.484 178.651 286.891L178.742 287.704C180.368 287.613 183.469 287.342 185.923 287.056L185.833 286.243C184.553 286.108 184.267 285.837 183.981 283.307L183.62 280.176C184.222 280.07 184.824 279.995 185.456 279.905C189.747 284.572 191.644 286.68 195.137 286.138C196.628 285.912 197.606 285.054 198.088 283.894L197.38 283.413C197.004 283.819 196.703 284.06 196.176 284.12ZM186.48 278.143C185.396 278.339 184.327 278.429 183.424 278.474L182.611 271.398C183.334 271.278 184.162 271.142 184.96 271.037C188.136 270.615 189.672 271.82 190.048 274.108C190.395 276.306 189.205 277.722 186.48 278.143ZM207.272 271.263C203.508 271.699 201.385 272.046 200.693 269.908C200.331 268.794 201.009 267.228 203.373 266.46C206.188 265.542 208.386 266.4 210.795 267.89L211.412 267.363L208.838 263.585L208.386 263.63C208.266 263.765 208.025 263.976 207.739 264.066C206.414 264.503 205.51 264.051 202.951 264.894C199.503 266.024 197.155 268.944 198.209 272.196C199.488 276.081 203.297 275.734 206.775 275.313C210.464 274.876 212.481 274.515 213.159 276.608C213.565 277.857 212.752 279.543 210.313 280.341C206.64 281.546 203.809 280.793 200.903 278.715L200.271 279.212L202.8 283.608L203.267 283.578C203.478 283.307 203.809 283.051 204.231 282.916C205.947 282.359 207.227 283.051 210.735 281.907C213.836 280.883 216.847 278.053 215.628 274.334C214.423 270.585 210.705 270.856 207.272 271.263ZM224.767 271.067L220.37 262.38C219.226 260.107 219.301 259.73 220.355 258.902L219.964 258.18C217.931 259.264 215.854 260.287 213.761 261.236L214.107 261.989C215.417 261.657 215.763 261.823 216.862 264.111L221.093 272.889C222.192 275.177 222.162 275.539 221.108 276.367L221.469 277.104C223.637 276.111 225.76 275.072 227.883 273.943L227.522 273.205C226.212 273.521 225.911 273.341 224.767 271.067ZM239.175 262.26L233.077 253.573C232.324 252.489 232.385 252.187 233.213 251.615C234.583 250.667 236.57 250.441 239.325 251.058L239.762 250.366L235.953 247.565C234.161 248.996 232.339 250.396 229.765 252.172C227.19 253.949 225.248 255.153 223.276 256.313L224.541 260.875L225.354 260.724C225.745 257.939 226.648 256.177 228.019 255.229C228.847 254.657 229.148 254.702 229.9 255.801L235.847 264.593C237.263 266.701 237.293 267.062 236.359 268.041L236.826 268.718C238.828 267.424 240.786 266.084 242.713 264.653L242.246 263.976C240.966 264.488 240.635 264.337 239.175 262.26ZM255.781 247.836L252.845 245.006L251.972 237.538C251.671 234.859 251.611 233.654 252.002 232.721L251.355 232.209C250.165 233.654 248.765 235.265 247.455 236.725L248.057 237.283C249.202 236.454 250.12 236.996 250.331 238.803L251.023 244.509L245.016 243.636C243.466 243.395 242.893 242.763 243.646 241.844L243.074 241.257C241.418 242.868 239.325 244.795 237.383 246.391L237.91 247.038C239.009 246.798 239.656 246.783 241.207 246.978L250.376 248.198L252.905 250.757C254.697 252.564 254.787 252.91 254.065 254.039L254.652 254.611C256.368 252.97 258.039 251.284 259.665 249.523L259.078 248.951C257.949 249.688 257.603 249.613 255.781 247.836ZM65.3433 116.356C65.825 116.221 66.3821 116.161 67.0445 116.522L74.5874 120.481C77.1318 121.806 77.6436 122.815 77.478 123.959L78.2308 124.306C78.9836 122.725 79.7364 121.159 80.5644 119.623L79.8418 119.232C79.0288 120.03 77.8996 120.256 75.3552 118.901L68.4748 115.242L85.608 111.072L86.2253 110.153L75.4756 103.424C73.0216 101.873 72.6452 100.924 72.9764 99.75L72.2989 99.2833C71.2902 100.744 70.2965 102.234 69.3781 103.74L70.0707 104.191C70.9439 103.424 71.8623 103.288 74.482 104.914L80.2031 108.422L65.8401 111.794C64.6808 112.08 64.47 112.336 64.2894 112.668C63.8678 113.451 62.6031 116.04 62.031 117.29L62.7838 117.636C63.1301 117.124 63.6269 116.808 65.3433 116.356ZM82.0098 100.172C85.7736 103.559 91.5249 103.499 95.3189 99.2532C99.1279 95.0226 98.5709 89.3014 94.807 85.9139C91.0431 82.5264 85.2919 82.5867 81.4979 86.8323C77.6888 91.078 78.2459 96.7841 82.0098 100.172ZM82.627 87.8561C84.78 85.4623 88.4836 85.6279 92.2626 89.0154C95.8308 92.2222 96.3728 95.7753 94.1746 98.2294C92.0217 100.623 88.318 100.458 84.5391 97.0701C80.9559 93.8482 80.4139 90.3252 82.627 87.8561ZM96.6136 78.3862L102.681 85.9742C104.247 87.9766 104.247 88.4132 103.419 89.4068L103.976 90.0392C105.511 88.7143 107.348 87.2087 109.305 85.7032L108.809 85.0407C107.664 85.6279 107.243 85.5827 105.722 83.5502L103.825 81.0661C104.277 80.6746 104.729 80.3133 105.21 79.9218C111.338 81.9393 113.988 82.9932 116.924 80.9607C118.158 80.1025 118.73 78.8077 118.67 77.5581L117.812 77.4377C117.661 77.9496 117.496 78.2808 117.059 78.5819C115.403 79.7562 112.512 78.1453 108.553 76.8354C110.66 74.547 111.037 72.1833 109.592 70.211C107.86 67.8623 104.819 67.0493 99.7301 70.8132C97.6675 72.3338 94.4456 74.9686 92.9401 76.2633L93.452 76.9107C94.6263 76.3386 95.0479 76.3838 96.6136 78.3862ZM100.438 72.3639C103.012 70.4519 105.015 70.753 106.415 72.65C107.74 74.4416 107.454 76.2182 105.286 77.9194C104.443 78.5969 103.569 79.1992 102.801 79.7412L98.4504 74.0351C99.0225 73.4931 99.7151 72.8909 100.438 72.3639ZM112.919 67.8021C113.521 65.0469 114.56 63.3457 116.02 62.4724C116.999 61.8853 117.3 61.9756 117.902 63.1499C119.603 66.4019 122.434 72.1381 122.976 73.4028C123.623 74.9384 123.428 75.5557 122.449 76.2784L122.84 77.0011C124.873 75.9171 127.372 74.6976 129.465 73.7491L129.119 72.9963C127.944 73.3426 127.342 73.1167 126.514 71.6563C125.852 70.4669 123.021 64.7157 121.485 61.3884C120.928 60.1991 121.049 59.8979 122.103 59.4914C123.684 58.8742 125.656 59.0849 128.215 60.2894L128.772 59.7022L125.701 56.1792C123.247 57.203 120.793 58.3021 118.354 59.5065C115.9 60.7109 113.536 61.9756 111.233 63.3005L112.151 67.8774L112.919 67.8021ZM133.033 57.6547L135.969 66.9289C136.722 69.3528 136.541 69.7744 135.427 70.4067L135.713 71.2047C137.806 70.4519 140.139 69.6539 142.292 69.0216L142.051 68.2387C140.772 68.3592 140.38 68.1785 139.673 65.7395L138.333 61.1777C140.877 60.3044 143.888 59.4914 146.538 58.9796L147.652 63.6016C148.269 66.0707 148.013 66.4321 146.854 66.959L147.05 67.7569C149.218 67.23 151.642 66.7332 153.825 66.3417L153.674 65.4986C152.379 65.4986 152.018 65.2427 151.446 62.7585L149.338 53.2735C148.766 50.7893 148.962 50.4431 150.136 49.9161L149.971 49.1031C147.803 49.4946 145.183 50.0516 142.94 50.5936L143.135 51.3916C144.43 51.3916 144.746 51.6174 145.348 54.0865L146.116 57.2181C143.391 58.0311 140.591 58.7688 137.821 59.4463L136.917 56.3599C136.195 53.9209 136.36 53.5596 137.474 52.9272L137.234 52.1443C135.02 52.7917 132.461 53.6198 130.398 54.3726L130.654 55.1554C131.934 55.035 132.28 55.2307 133.033 57.6547ZM158.236 51.9486L159.109 61.6143C159.32 64.1436 159.079 64.52 157.83 64.8964L157.95 65.7244C160.058 65.4384 162.662 65.1975 165.448 65.0469C167.887 64.9114 170.175 64.8061 172.719 64.8964L174.285 60.3797L173.532 60.0937C172.689 61.0422 171.861 61.8401 170.853 62.4122C169.934 62.9392 168.925 63.2252 165.99 63.3908C163.972 63.5113 163.701 63.4511 163.49 63.2553C163.295 63.0596 163.204 62.6531 163.129 62.1713C163.024 61.4487 162.768 58.7688 162.542 55.9835C165.162 55.7125 166.291 55.7276 167.254 55.9835C168.052 56.2394 168.293 56.7212 168.489 57.3686L169.362 57.3385L169.242 52.2046L168.368 52.2347C168.218 52.8971 168.037 53.3638 167.209 53.7553C166.697 53.9962 165.824 54.1618 162.437 54.3726C162.301 52.8971 162.196 51.4668 162.135 50.3377C162.105 49.8258 162.181 49.5548 162.346 49.3892C162.527 49.1934 162.662 49.1332 164.454 49.0429C168.429 48.8171 170.13 49.1031 172.494 50.8797L173.096 50.3678L171.53 47.2212C169.332 47.2061 166.938 47.2964 164.469 47.4319C162.12 47.5674 158.507 47.8836 156.339 48.1546L156.414 48.9827C157.694 49.1182 158.025 49.4042 158.236 51.9486ZM180.895 64.4899C179.54 63.9931 179.088 63.1499 180.067 61.6444L181.452 59.5065C182.581 59.642 183.695 59.7624 184.854 59.9281C186.044 60.0937 187.278 60.2743 188.498 60.5002L189.326 63.1048C189.747 64.3694 189.416 65.2728 188.227 65.4233L188.091 66.2363C190.319 66.6127 192.773 67.1096 195.303 67.6967L195.514 66.8988C194.595 66.3267 194.309 65.6191 193.571 63.4059L188.904 49.615C188.603 48.6665 188.437 48.4557 187.88 48.3804C186.3 48.1697 184.794 47.989 183.379 47.8384L183.288 48.6364C183.891 48.7869 184.282 48.9676 184.689 49.3741C185.306 50.0215 185.366 50.2925 185.035 50.8044L178.26 61.1325C176.995 63.0446 176.077 63.8726 175.098 64.1135L175.083 64.9416C176.95 65.0018 178.847 65.1523 180.804 65.3179L180.895 64.4899ZM185.983 52.5508L187.941 58.7236C187.022 58.6182 186.089 58.5128 185.14 58.3924C184.237 58.2719 183.349 58.1214 182.445 57.9708L185.983 52.5508ZM199.443 68.1032C201.144 68.6603 201.732 69.9249 204.953 70.9939C208.055 72.0177 212.165 71.5208 213.385 67.8172C214.634 64.0232 211.412 62.0358 208.371 60.2894C205.119 58.4225 203.282 57.4891 203.975 55.3813C204.351 54.2672 205.842 53.4241 208.251 54.222C211.081 55.1554 212.361 57.1428 213.445 59.8076L214.258 59.7474L214.438 55.1705L214.047 54.9447C213.866 54.9748 213.55 55.0049 213.264 54.9146C211.924 54.4779 211.427 53.5596 208.868 52.7164C205.39 51.5572 201.732 52.5057 200.663 55.7426C199.413 59.5216 202.575 61.5089 205.586 63.2252C208.868 65.0771 210.78 66.0105 210.072 68.1785C209.651 69.4281 208.01 70.3013 205.571 69.4883C202.183 68.3592 200.392 66.1159 199.277 62.7434L198.48 62.7736L197.907 67.8172L198.299 68.0731C198.585 67.9677 199.022 67.9677 199.443 68.1032ZM222.975 77.8291C222.011 77.0763 221.846 76.4591 222.538 74.9384C223.11 73.7039 226.122 68.043 227.913 64.8512C228.545 63.6919 228.862 63.6167 229.81 64.2339C231.24 65.1523 232.219 66.8687 232.746 69.6539L233.544 69.7593L234.598 65.2126C232.324 63.8274 230.006 62.4875 227.597 61.2078C225.188 59.9281 222.779 58.7537 220.355 57.6547L217.179 61.0873L217.705 61.6896C220.295 60.5604 222.267 60.4098 223.833 61.0873C224.872 61.539 224.977 61.8251 224.39 62.9994C222.749 66.2815 219.753 71.9424 219.045 73.1017C218.172 74.5319 217.57 74.7427 216.411 74.3663L216.049 75.1041C218.112 76.1278 220.566 77.4226 222.568 78.5668L222.975 77.8291ZM231.993 79.8616C230.488 81.9092 230.066 82.0296 228.877 81.4876L228.41 82.1952C230.171 83.3696 232.294 84.9052 234.492 86.6366C236.42 88.1422 238.196 89.5724 240.063 91.3189L244.218 88.9552L243.842 88.2476C242.592 88.3981 241.433 88.4583 240.304 88.2325C239.28 88.0217 238.317 87.5701 235.998 85.7634C234.402 84.5138 234.252 84.303 234.206 84.0019C234.191 83.7158 234.387 83.3545 234.643 82.948C235.034 82.3307 236.615 80.1627 238.286 77.9194C240.439 79.4551 241.282 80.2079 241.824 81.0209C242.246 81.7436 242.111 82.2554 241.84 82.8727L242.517 83.4298L245.814 79.5003L245.137 78.9432C244.58 79.3497 244.143 79.5605 243.255 79.3196C242.713 79.1691 241.945 78.7023 239.265 76.6397C240.138 75.4503 241.011 74.3061 241.704 73.4178C242.02 73.0113 242.261 72.8608 242.487 72.8307C242.758 72.8006 242.893 72.8457 244.294 73.9448C247.425 76.3988 248.524 77.7388 249.126 80.6294L249.909 80.6445L250.798 77.257C249.157 75.7966 247.305 74.276 245.363 72.7554C243.511 71.3101 240.59 69.1571 238.768 67.9226L238.286 68.585C239.16 69.5636 239.22 70.0002 237.699 72.0478L231.993 79.8616ZM243.992 93.8332L243.405 94.4354C244.836 95.8657 246.477 97.5971 248.133 99.4188L248.75 98.8768C248.073 97.7777 248.088 97.3562 250 95.685L252.333 93.6073C252.74 93.9988 253.161 94.4504 253.583 94.9021C251.912 101.06 251.038 103.74 253.312 106.465C254.26 107.639 255.57 108.061 256.805 107.88L256.85 107.037C256.323 106.931 255.977 106.796 255.645 106.374C254.381 104.884 255.796 101.978 256.88 97.9885C259.349 99.9307 261.743 100.156 263.61 98.5305C265.808 96.6184 266.395 93.5321 262.255 88.7444C260.569 86.8022 257.708 83.7911 256.308 82.3759L255.706 82.9329C256.368 84.0621 256.368 84.4837 254.486 86.2L247.38 92.8244C245.483 94.5558 245.046 94.5859 243.992 93.8332ZM258.958 87.6905C259.515 88.2325 260.177 88.8799 260.764 89.5574C262.857 91.9813 262.722 93.9988 260.945 95.5344C259.259 96.9948 257.467 96.8443 255.615 94.7967C254.878 94.0138 254.215 93.1858 253.613 92.4481L258.958 87.6905ZM257.091 109.641L256.398 110.108C257.362 111.554 258.31 113.029 259.199 114.52L259.906 114.098C259.635 112.984 260.027 111.9 262.496 110.424L269.18 106.42L263.926 123.252L264.408 124.245L275.715 118.494C278.304 117.184 279.313 117.365 280.141 118.238L280.894 117.907C280.156 116.296 279.388 114.67 278.575 113.104L277.837 113.466C278.048 114.61 277.687 115.468 274.947 116.883L269 119.97L273.501 105.953C273.863 104.809 273.742 104.492 273.562 104.176C273.11 103.408 271.544 100.985 270.761 99.8704L270.084 100.337C270.34 100.894 270.34 101.481 269.858 103.183C269.722 103.664 269.497 104.161 268.849 104.553L261.562 108.979C259.093 110.455 257.979 110.379 257.091 109.641Z" fill="black"/>
</g>
</g>
<defs>
<filter id="filter0_d_2401_4" x="0" y="0" width="344" height="344" filterUnits="userSpaceOnUse" color-interpolation-filters="sRGB">
<feFlood flood-opacity="0" result="BackgroundImageFix"/>
<feColorMatrix in="SourceAlpha" type="matrix" values="0 0 0 0 0 0 0 0 0 0 0 0 0 0 0 0 0 0 127 0" result="hardAlpha"/>
<feMorphology radius="4" operator="dilate" in="SourceAlpha" result="effect1_dropShadow_2401_4"/>
<feOffset dy="4"/>
<feGaussianBlur stdDeviation="6"/>
<feComposite in2="hardAlpha" operator="out"/>
<feColorMatrix type="matrix" values="0 0 0 0 0.784314 0 0 0 0 0.0627451 0 0 0 0 0.180392 0 0 0 1 0"/>
<feBlend mode="normal" in2="BackgroundImageFix" result="effect1_dropShadow_2401_4"/>
<feBlend mode="normal" in="SourceGraphic" in2="effect1_dropShadow_2401_4" result="shape"/>
</filter>
<clipPath id="clip0_2401_4">
<rect width="271" height="271" fill="white" transform="translate(36 32)"/>
</clipPath>
</defs>
</svg>
