<?xml version="1.0" encoding="UTF-8" standalone="no"?> <!-- Created with Vectornator for iOS (http://vectornator.io/) --><!DOCTYPE svg PUBLIC "-//W3C//DTD SVG 1.1//EN" "http://www.w3.org/Graphics/SVG/1.1/DTD/svg11.dtd">
<svg height="100%" style="fill-rule:nonzero;clip-rule:evenodd;stroke-linecap:round;stroke-linejoin:round;" xmlns:xlink="http://www.w3.org/1999/xlink" xmlns="http://www.w3.org/2000/svg" xml:space="preserve" width="100%" xmlns:vectornator="http://vectornator.io" version="1.1" viewBox="0 0 250 325">
<metadata>
<vectornator:setting key="DimensionsVisible" value="0"/>
<vectornator:setting key="PencilOnly" value="0"/>
<vectornator:setting key="SnapToPoints" value="0"/>
<vectornator:setting key="OutlineMode" value="0"/>
<vectornator:setting key="CMYKEnabledKey" value="0"/>
<vectornator:setting key="RulersVisible" value="1"/>
<vectornator:setting key="SnapToEdges" value="0"/>
<vectornator:setting key="GuidesVisible" value="0"/>
<vectornator:setting key="DisplayWhiteBackground" value="0"/>
<vectornator:setting key="doHistoryDisabled" value="0"/>
<vectornator:setting key="SnapToGuides" value="1"/>
<vectornator:setting key="TimeLapseWatermarkDisabled" value="0"/>
<vectornator:setting key="Units" value="Points"/>
<vectornator:setting key="DynamicGuides" value="1"/>
<vectornator:setting key="IsolateActiveLayer" value="0"/>
<vectornator:setting key="SnapToGrid" value="0"/>
</metadata>
<defs>
<linearGradient y1="299.771" id="LinearGradient" x1="323.975" y2="1947.2" x2="1990.97" gradientUnits="userSpaceOnUse" gradientTransform="matrix(0.715426 0 0 0.747078 32.468 20.6431)">
<stop stop-color="#387eb8" offset="0"/>
<stop stop-color="#366994" offset="1"/>
</linearGradient>
<linearGradient y1="512.417" id="LinearGradient_2" x1="478.2" y2="2201.88" x2="2268.55" gradientUnits="userSpaceOnUse" gradientTransform="matrix(0.715426 0 0 0.747078 32.468 20.6431)">
<stop stop-color="#ffe052" offset="0"/>
<stop stop-color="#ffc331" offset="1"/>
</linearGradient>
</defs>
<g id="Layer 1" vectornator:layerName="Layer 1">
<path d="M22.5+0L225+0C238.807+0+250+11.1929+250+25L250+300C250+313.807+238.807+325+225+325L22.5+325C10.0736+325+0+314.926+0+302.5L0+22.5C0+10.0736+10.0736+0+22.5+0Z" opacity="1" fill="#ffffff"/>
<g opacity="1">
<path d="M88.561+271.489L88.561+264.677L93.397+264.677C94.801+264.677+95.828+264.967+96.478+265.548C97.128+266.129+97.453+266.974+97.453+268.083C97.453+269.192+97.128+270.042+96.478+270.631C95.828+271.22+94.801+271.506+93.397+271.489L88.561+271.489ZM86.091+262.597L86.091+281.161L88.561+281.161L88.561+273.569L94.229+273.569C96.101+273.586+97.518+273.11+98.48+272.139C99.442+271.168+99.923+269.816+99.923+268.083C99.923+266.35+99.442+265.002+98.48+264.04C97.518+263.078+96.101+262.597+94.229+262.597L86.091+262.597Z" opacity="1" fill="#887bec"/>
<path d="M107.853+282.955C107.593+283.614+107.337+284.168+107.086+284.619C106.835+285.07+106.557+285.438+106.254+285.724C105.951+286.01+105.613+286.218+105.24+286.348C104.867+286.478+104.438+286.543+103.953+286.543C103.693+286.543+103.433+286.526+103.173+286.491C102.913+286.456+102.662+286.396+102.419+286.309L102.419+284.281C102.61+284.368+102.831+284.441+103.082+284.502C103.333+284.563+103.546+284.593+103.719+284.593C104.17+284.593+104.547+284.485+104.85+284.268C105.153+284.051+105.383+283.744+105.539+283.345L106.449+281.083L101.119+267.719L103.615+267.719L107.541+278.717L107.593+278.717L111.363+267.719L113.703+267.719L107.853+282.955Z" opacity="1" fill="#887bec"/>
<path d="M118.643+267.719L118.643+263.689L116.433+263.689L116.433+267.719L114.145+267.719L114.145+269.669L116.433+269.669L116.433+278.223C116.433+278.847+116.494+279.35+116.615+279.731C116.736+280.112+116.923+280.407+117.174+280.615C117.425+280.823+117.755+280.966+118.162+281.044C118.569+281.122+119.059+281.161+119.631+281.161L121.321+281.161L121.321+279.211L120.307+279.211C119.96+279.211+119.679+279.198+119.462+279.172C119.245+279.146+119.076+279.09+118.955+279.003C118.834+278.916+118.751+278.795+118.708+278.639C118.665+278.483+118.643+278.275+118.643+278.015L118.643+269.669L121.321+269.669L121.321+267.719L118.643+267.719Z" opacity="1" fill="#887bec"/>
<path d="M123.765+262.597L123.765+281.161L125.975+281.161L125.975+273.569C125.975+272.962+126.057+272.403+126.222+271.892C126.387+271.381+126.634+270.934+126.963+270.553C127.292+270.172+127.704+269.877+128.198+269.669C128.692+269.461+129.277+269.357+129.953+269.357C130.802+269.357+131.47+269.6+131.955+270.085C132.44+270.57+132.683+271.229+132.683+272.061L132.683+281.161L134.893+281.161L134.893+272.321C134.893+271.593+134.819+270.93+134.672+270.332C134.525+269.734+134.269+269.218+133.905+268.785C133.541+268.352+133.064+268.014+132.475+267.771C131.886+267.528+131.149+267.407+130.265+267.407C129.866+267.407+129.455+267.45+129.03+267.537C128.605+267.624+128.198+267.758+127.808+267.94C127.418+268.122+127.067+268.356+126.755+268.642C126.443+268.928+126.2+269.279+126.027+269.695L125.975+269.695L125.975+262.597L123.765+262.597Z" opacity="1" fill="#887bec"/>
<path d="M139.833+274.453C139.833+273.638+139.941+272.915+140.158+272.282C140.375+271.649+140.674+271.116+141.055+270.683C141.436+270.25+141.883+269.92+142.394+269.695C142.905+269.47+143.447+269.357+144.019+269.357C144.591+269.357+145.133+269.47+145.644+269.695C146.155+269.92+146.602+270.25+146.983+270.683C147.364+271.116+147.663+271.649+147.88+272.282C148.097+272.915+148.205+273.638+148.205+274.453C148.205+275.268+148.097+275.991+147.88+276.624C147.663+277.257+147.364+277.785+146.983+278.21C146.602+278.635+146.155+278.96+145.644+279.185C145.133+279.41+144.591+279.523+144.019+279.523C143.447+279.523+142.905+279.41+142.394+279.185C141.883+278.96+141.436+278.635+141.055+278.21C140.674+277.785+140.375+277.257+140.158+276.624C139.941+275.991+139.833+275.268+139.833+274.453ZM137.493+274.453C137.493+275.441+137.632+276.36+137.909+277.209C138.186+278.058+138.602+278.799+139.157+279.432C139.712+280.065+140.396+280.559+141.211+280.914C142.026+281.269+142.962+281.447+144.019+281.447C145.094+281.447+146.034+281.269+146.84+280.914C147.646+280.559+148.326+280.065+148.881+279.432C149.436+278.799+149.852+278.058+150.129+277.209C150.406+276.36+150.545+275.441+150.545+274.453C150.545+273.465+150.406+272.542+150.129+271.684C149.852+270.826+149.436+270.081+148.881+269.448C148.326+268.815+147.646+268.317+146.84+267.953C146.034+267.589+145.094+267.407+144.019+267.407C142.962+267.407+142.026+267.589+141.211+267.953C140.396+268.317+139.712+268.815+139.157+269.448C138.602+270.081+138.186+270.826+137.909+271.684C137.632+272.542+137.493+273.465+137.493+274.453Z" opacity="1" fill="#887bec"/>
<path d="M153.145+267.719L153.145+281.161L155.355+281.161L155.355+273.569C155.355+272.962+155.437+272.403+155.602+271.892C155.767+271.381+156.014+270.934+156.343+270.553C156.672+270.172+157.084+269.877+157.578+269.669C158.072+269.461+158.657+269.357+159.333+269.357C160.182+269.357+160.85+269.6+161.335+270.085C161.82+270.57+162.063+271.229+162.063+272.061L162.063+281.161L164.273+281.161L164.273+272.321C164.273+271.593+164.199+270.93+164.052+270.332C163.905+269.734+163.649+269.218+163.285+268.785C162.921+268.352+162.444+268.014+161.855+267.771C161.266+267.528+160.529+267.407+159.645+267.407C157.652+267.407+156.196+268.222+155.277+269.851L155.225+269.851L155.225+267.719L153.145+267.719Z" opacity="1" fill="#887bec"/>
</g>
<path d="M123.267+20.6969C76.8845+20.6969+79.7806+41.701+79.7806+41.701L79.8321+63.4619L124.094+63.4619L124.094+69.9951L62.2519+69.9951C62.2519+69.9951+32.5718+66.4801+32.5718+115.35C32.5718+164.222+58.4773+162.489+58.4773+162.489L73.9377+162.489L73.9377+139.81C73.9377+139.81+73.1042+112.759+99.4298+112.759L143.33+112.759C143.33+112.759+167.994+113.175+167.994+87.8667L167.994+46.0214C167.994+46.0214+171.74+20.6969+123.267+20.6969ZM98.861+35.3307C100.973+35.3287+103+36.2041+104.494+37.7639C105.987+39.3237+106.826+41.4398+106.824+43.6457C106.826+45.8516+105.987+47.9677+104.494+49.5275C103+51.0872+100.973+51.9626+98.861+51.9607C96.7486+51.9627+94.7221+51.0872+93.2284+49.5275C91.7347+47.9677+90.8964+45.8516+90.8983+43.6457C90.8964+41.4398+91.7347+39.3237+93.2284+37.7639C94.7221+36.2041+96.7486+35.3287+98.861+35.3307Z" fill-rule="evenodd" fill="url(#LinearGradient)" opacity="1"/>
<path d="M124.584+210.495C170.967+210.495+168.071+189.491+168.071+189.491L168.019+167.731L123.756+167.731L123.756+161.198L185.599+161.198C185.599+161.198+215.279+164.713+215.279+115.841C215.279+66.9702+189.373+68.7034+189.373+68.7034L173.913+68.7034L173.913+91.381C173.913+91.381+174.746+118.433+148.421+118.433L104.521+118.433C104.521+118.433+79.8564+118.017+79.8564+143.325L79.8564+185.171C79.8564+185.171+76.1112+210.495+124.583+210.495L124.584+210.495ZM148.99+195.863C146.878+195.865+144.851+194.989+143.358+193.43C141.864+191.87+141.026+189.754+141.027+187.548C141.025+185.342+141.864+183.226+143.357+181.666C144.851+180.106+146.878+179.23+148.99+179.232C151.103+179.23+153.129+180.106+154.623+181.665C156.116+183.225+156.955+185.341+156.953+187.547C156.955+189.753+156.116+191.869+154.623+193.429C153.129+194.989+151.103+195.864+148.99+195.862L148.99+195.863Z" fill-rule="evenodd" fill="url(#LinearGradient_2)" opacity="1"/>
</g>
</svg>
