<?xml version="1.0" encoding="UTF-8" standalone="no"?> <!-- Created with Vectornator for iOS (http://vectornator.io/) --><!DOCTYPE svg PUBLIC "-//W3C//DTD SVG 1.1//EN" "http://www.w3.org/Graphics/SVG/1.1/DTD/svg11.dtd">
<svg style="fill-rule:evenodd;clip-rule:evenodd;stroke-linecap:round;stroke-linejoin:round;" xmlns:vectornator="http://vectornator.io" xmlns:xlink="http://www.w3.org/1999/xlink" xmlns="http://www.w3.org/2000/svg" xml:space="preserve" version="1.1" viewBox="0 0 250 325">
<metadata>
<vectornator:setting key="DimensionsVisible" value="1"/>
<vectornator:setting key="SnapToGrid" value="0"/>
<vectornator:setting key="SnapToPoints" value="0"/>
<vectornator:setting key="GuidesVisible" value="1"/>
<vectornator:setting key="RulersVisible" value="1"/>
<vectornator:setting key="CMYKEnabledKey" value="0"/>
<vectornator:setting key="SnapToEdges" value="0"/>
<vectornator:setting key="DisplayWhiteBackground" value="0"/>
<vectornator:setting key="SnapToGuides" value="1"/>
<vectornator:setting key="GridSpacing" value="36"/>
<vectornator:setting key="Units" value="Pixels"/>
<vectornator:setting key="DynamicGuides" value="0"/>
<vectornator:setting key="New" value="1"/>
</metadata>
<defs/>
<g id="Layer 1" vectornator:layerName="Layer 1">
<text x="0" font-family="CourierNewPSMT" y="0" text-anchor="middle" vectornator:text="MySQL" fill="#111111" font-size="24" vectornator:width="251.908" opacity="1" transform="matrix(1 0 0 1 -1.23922 256.156)">
<tspan x="125.954" y="20" textLength="72.0117">
MySQL</tspan>
</text>
<g opacity="1">
<path d="M30.2+20.7L222.956+20.7L222.956+213.456L30.2+213.456L30.2+20.7Z" fill-rule="evenodd" fill="#ffffff" opacity="1"/>
<path d="M38.704+148.915L44.504+148.915L44.504+125.938L53.562+145.971C54.588+148.379+56.061+149.272+58.916+149.272C61.772+149.272+63.155+148.379+64.226+145.971L73.239+125.938L73.239+148.915L79.084+148.915L79.084+125.938C79.084+123.708+78.191+122.635+76.317+122.055C71.9+120.717+68.955+121.877+67.617+124.866L58.739+144.677L50.172+124.866C48.878+121.878+45.888+120.718+41.427+122.055C39.598+122.635+38.705+123.707+38.705+125.938L38.705+148.915C38.705+148.915+38.704+148.915+38.704+148.915ZM83.902+130.221L89.747+130.221L89.747+142.848C89.703+143.561+89.97+145.168+93.138+145.211C94.789+145.256+105.72+145.211+105.809+145.211L105.809+130.131L111.654+130.131L111.654+150.789C111.654+155.875+105.363+156.99+102.418+157.035L84.035+157.035L84.035+153.154L102.462+153.154C106.21+152.752+105.764+150.879+105.764+150.254L105.764+148.736L93.405+148.736C87.649+148.691+83.946+146.148+83.902+143.248C83.902+142.981+84.035+130.309+83.902+130.221ZM209.276+115.586C205.708+115.497+202.94+115.854+200.62+116.836C199.952+117.105+198.88+117.105+198.792+117.952C199.149+118.307+199.192+118.888+199.505+119.38C200.04+120.273+200.978+121.476+201.825+122.101C202.763+122.816+203.7+123.529+204.68+124.154C206.42+125.224+208.383+125.849+210.078+126.92C211.06+127.545+212.041+128.348+213.023+129.018C213.513+129.375+213.826+129.956+214.451+130.178L214.451+130.043C214.139+129.643+214.049+129.063+213.738+128.615C213.291+128.17+212.845+127.767+212.398+127.322C211.105+125.582+209.498+124.064+207.757+122.816C206.329+121.834+203.206+120.496+202.626+118.845L202.538+118.755C203.518+118.665+204.679+118.308+205.616+118.04C207.134+117.64+208.516+117.728+210.077+117.327C210.792+117.148+211.505+116.925+212.22+116.702L212.22+116.301C211.417+115.498+210.837+114.427+209.99+113.669C207.715+111.706+205.215+109.787+202.627+108.181C201.244+107.289+199.459+106.708+197.988+105.951C197.451+105.683+196.56+105.549+196.248+105.103C195.443+104.122+194.998+102.828+194.418+101.667C193.125+99.213+191.875+96.492+190.76+93.904C189.957+92.164+189.465+90.424+188.485+88.818C183.889+81.233+178.891+76.637+171.217+72.131C169.567+71.194+167.604+70.792+165.506+70.302C164.391+70.257+163.276+70.168+162.16+70.123C161.445+69.811+160.732+68.963+160.107+68.561C157.564+66.955+151.005+63.475+149.13+68.07C147.925+70.97+150.915+73.825+151.941+75.298C152.701+76.324+153.681+77.484+154.218+78.644C154.529+79.402+154.618+80.206+154.931+81.009C155.644+82.972+156.314+85.158+157.251+86.988C157.741+87.925+158.276+88.907+158.901+89.755C159.258+90.246+159.883+90.469+160.016+91.272C159.391+92.165+159.348+93.503+158.991+94.619C157.384+99.661+158.009+105.907+160.284+109.61C160.999+110.725+162.694+113.179+164.97+112.242C166.978+111.439+166.531+108.896+167.111+106.665C167.246+106.13+167.156+105.773+167.423+105.416L167.423+105.505C168.048+106.754+168.673+107.959+169.253+109.208C170.636+111.394+173.046+113.67+175.054+115.187C176.124+115.99+176.972+117.374+178.31+117.864L178.31+117.729L178.222+117.729C177.954+117.329+177.552+117.15+177.195+116.837C176.392+116.034+175.5+115.052+174.875+114.16C173.002+111.662+171.352+108.895+169.879+106.04C169.164+104.657+168.539+103.14+167.961+101.757C167.691+101.221+167.691+100.418+167.246+100.151C166.576+101.132+165.596+101.981+165.103+103.185C164.255+105.103+164.167+107.468+163.855+109.922C163.675+109.967+163.765+109.922+163.675+110.011C162.249+109.655+161.757+108.182+161.222+106.933C159.884+103.765+159.66+98.679+160.82+95.02C161.132+94.083+162.472+91.138+161.937+90.246C161.667+89.398+160.777+88.908+160.285+88.238C159.705+87.39+159.082+86.32+158.68+85.383C157.61+82.884+157.075+80.118+155.914+77.619C155.377+76.459+154.441+75.254+153.682+74.184C152.834+72.979+151.899+72.131+151.229+70.704C151.006+70.213+150.694+69.41+151.051+68.875C151.139+68.518+151.319+68.384+151.674+68.295C152.254+67.804+153.906+68.429+154.486+68.696C156.136+69.365+157.519+69.99+158.902+70.926C159.527+71.372+160.197+72.22+161+72.444L161.938+72.444C163.366+72.756+164.971+72.533+166.309+72.934C168.674+73.693+170.815+74.808+172.735+76.013C178.579+79.716+183.399+84.981+186.655+91.272C187.19+92.298+187.413+93.235+187.905+94.306C188.843+96.493+190.003+98.723+190.938+100.865C191.876+102.962+192.768+105.104+194.106+106.844C194.776+107.781+197.452+108.271+198.657+108.762C199.55+109.163+200.932+109.521+201.737+110.011C203.253+110.948+204.77+112.019+206.198+113.045C206.911+113.579+209.143+114.694+209.276+115.586Z" fill-rule="evenodd" fill="#00678c" opacity="1"/>
<path d="M163.766+76.814C163.008+76.814+162.473+76.903+161.938+77.037L161.938+77.126L162.026+77.126C162.383+77.84+163.008+78.331+163.454+78.955C163.811+79.669+164.124+80.383+164.481+81.097L164.569+81.008C165.194+80.562+165.507+79.848+165.507+78.777C165.239+78.465+165.195+78.152+164.972+77.84C164.704+77.394+164.124+77.171+163.766+76.814Z" fill-rule="evenodd" fill="#00678c" opacity="1"/>
<path d="M116.116+148.915L132.892+148.915C134.855+148.915+136.73+148.515+138.246+147.8C140.789+146.64+141.994+145.079+141.994+143.027L141.994+138.744C141.994+137.094+140.611+135.531+137.846+134.461C136.418+133.926+134.633+133.613+132.893+133.613L125.844+133.613C123.479+133.613+122.364+132.898+122.051+131.338C122.007+131.16+122.007+130.981+122.007+130.803L122.007+128.17C122.007+128.035+122.007+127.858+122.051+127.68C122.363+126.475+122.988+126.162+125.041+125.94L142.218+125.94L142.218+122.057L125.887+122.057C123.522+122.057+122.273+122.192+121.158+122.549C117.722+123.619+116.205+125.315+116.205+128.303L116.205+131.696C116.205+134.327+119.15+136.559+124.147+137.094C124.682+137.139+125.262+137.139+125.842+137.139L131.866+137.139C132.089+137.139+132.311+137.139+132.489+137.184C134.319+137.362+135.122+137.674+135.657+138.342C136.014+138.699+136.104+139.012+136.104+139.414L136.104+142.805C136.104+143.205+135.836+143.743+135.301+144.188C134.764+144.633+133.916+144.946+132.801+144.991C132.578+144.991+132.446+145.036+132.221+145.036L116.116+145.036C116.116+145.036+116.116+148.915+116.116+148.915ZM178.311+142.179C178.311+146.15+181.301+148.38+187.28+148.827C187.86+148.872+188.395+148.915+188.975+148.915L204.145+148.915L204.145+145.034L188.842+145.034C185.449+145.034+184.156+144.186+184.156+142.134L184.156+122.056L178.31+122.056L178.31+142.179C178.31+142.179+178.311+142.179+178.311+142.179ZM145.696+142.356L145.696+128.526C145.696+125.001+148.194+122.858+153.059+122.19C153.594+122.145+154.129+122.1+154.62+122.1L165.684+122.1C166.264+122.1+166.756+122.145+167.336+122.19C172.199+122.858+174.652+125.001+174.652+128.526L174.652+142.356C174.652+145.211+173.627+146.729+171.216+147.756L176.927+152.93L170.191+152.93L165.55+148.737L160.864+149.005L154.618+149.005C153.593+149.005+152.432+148.872+151.227+148.56C147.526+147.532+145.696+145.569+145.696+142.356ZM151.987+142.046C151.987+142.224+152.077+142.401+152.122+142.626C152.434+144.231+153.95+145.124+156.27+145.124L161.536+145.124L156.718+140.751L163.454+140.751L167.692+144.589C168.497+144.142+168.987+143.517+169.165+142.714C169.21+142.536+169.21+142.314+169.21+142.134L169.21+128.882C169.21+128.704+169.21+128.527+169.165+128.347C168.853+126.831+167.337+125.984+165.061+125.984L156.27+125.984C153.682+125.984+151.987+127.099+151.987+128.882C151.987+128.882+151.987+142.046+151.987+142.046ZM206.823+148.96L207.671+148.96L207.671+145.704L208.786+145.704L208.786+145.034L205.663+145.034L205.663+145.704L206.823+145.704C206.823+145.704+206.823+148.96+206.823+148.96ZM213.292+148.96L214.095+148.96L214.095+145.034L212.892+145.034L211.91+147.712L210.84+145.034L209.68+145.034L209.68+148.96L210.438+148.96L210.438+145.972L210.483+145.972L211.598+148.96L212.178+148.96L213.293+145.972L213.293+148.96C213.293+148.96+213.292+148.96+213.292+148.96Z" fill-rule="evenodd" fill="#ce8b2c" opacity="1"/>
</g>
</g>
</svg>
